<svg xmlns="http://www.w3.org/2000/svg" xmlns:xlink="http://www.w3.org/1999/xlink" viewBox="0 0 558.44 536.82"><defs><style>.cls-1,.cls-11,.cls-22,.cls-25,.cls-27,.cls-32{fill:none;}.cls-2{fill:#ffc700;}.cls-3{fill:#007cb4;}.cls-4{fill:#006488;}.cls-5{fill:#040404;}.cls-6{fill:#ffe4e1;}.cls-7{clip-path:url(#clip-path);}.cls-8{fill:#b6aa93;}.cls-9{clip-path:url(#clip-path-2);}.cls-10{fill:#af85e9;}.cls-11{stroke:#040404;}.cls-11,.cls-22,.cls-25,.cls-27{stroke-linecap:round;stroke-linejoin:round;}.cls-12{clip-path:url(#clip-path-3);}.cls-13{fill:#c1c1c1;}.cls-14{fill:gray;}.cls-15{fill:#c1e5a5;}.cls-16{fill:#a6ce7c;}.cls-17{clip-path:url(#clip-path-4);}.cls-18{fill:#ff86ab;}.cls-19{fill:#ffcecb;}.cls-20{clip-path:url(#clip-path-5);}.cls-21{fill:#fcfcfc;}.cls-22{stroke:#b6aa93;}.cls-23{clip-path:url(#clip-path-6);}.cls-24{fill:#0092dd;}.cls-25{stroke:#007cb4;}.cls-26{clip-path:url(#clip-path-7);}.cls-27{stroke:#8c8c8c;stroke-width:0.75px;}.cls-28{fill:#8c8c8c;}.cls-29{clip-path:url(#clip-path-8);}.cls-30{fill:#d8afff;}.cls-31{clip-path:url(#clip-path-9);}.cls-32{stroke:#886ac9;stroke-miterlimit:10;}.cls-33{fill:#94f7e7;}.cls-34{fill:#ff94ca;}.cls-35{fill:#d7f275;}</style><clipPath id="clip-path" transform="translate(4.98)"><path class="cls-1" d="M47.89,350.63l11.94,18.16s7.26,9.78,1.65,14.73L0,339.44l17.25-11.83Z"/></clipPath><clipPath id="clip-path-2" transform="translate(4.98)"><path class="cls-1" d="M223.3,337l32.5,7.22s12.14,1,12.17,8.45l-66.59,17.11-4.65-20.41Z"/></clipPath><clipPath id="clip-path-3" transform="translate(4.98)"><path class="cls-1" d="M511.4,245.52l18.07,12.08s9.72,7.33,14.71,1.76l-39.85-55.28L488.62,214.7Z"/></clipPath><clipPath id="clip-path-4" transform="translate(4.98)"><path class="cls-1" d="M282.67,406,262,412.84s-11.76,3.16-10.44,10.52l68.1,2.58L321,407Z"/></clipPath><clipPath id="clip-path-5" transform="translate(4.98)"><path class="cls-1" d="M405.62,496.66,427.38,505s12.44,4,10.64,11.8H356.88l7.65-21.08Z"/></clipPath><clipPath id="clip-path-6" transform="translate(4.98)"><path class="cls-1" d="M290.32,490.51,308,505.71s10.37,7.94,6.05,14.69l-76.42-27.27,14.3-17.29Z"/></clipPath><clipPath id="clip-path-7" transform="translate(4.98)"><path class="cls-1" d="M304.08,500.06l-18.41,14.3s-10.75,7.41-6.77,14.37l77.68-23.44-13.34-18.06Z"/></clipPath><clipPath id="clip-path-8" transform="translate(4.98)"><path class="cls-1" d="M173.5,505.1l-25.22,9.7s-12.44,4-10.64,11.81h81.14l-7.65-21.09Z"/></clipPath><clipPath id="clip-path-9" transform="translate(4.98)"><path class="cls-1" d="M160.3,220.32s10,12.15,22.46.71l25.52,7.57,3.63,1.07s17.92,4,25.9,17.29l11.72,18.52-11.42,6L145,264.89,128.35,278.6l-25.56-24.5,18.45-20.93s5.14-7.43,18-9.46Z"/></clipPath></defs><g id="레이어_2" data-name="레이어 2"><g id="레이어_2-2" data-name="레이어 2"><path class="cls-2" d="M157.75,84.94s18.89-2.91,32,23.11L164.5,126.44Z" transform="translate(4.98)"/><polygon class="cls-3" points="167.57 177.13 207.64 253.31 247.87 327.87 196.63 351.7 159.19 250.7 117.72 188.3 127.38 171.51 167.57 177.13"/><polygon class="cls-4" points="204.88 347.86 166.58 245.77 132.47 188.06 131.67 188.53 165.74 246.17 204.03 348.25 204.88 347.86"/><polygon class="cls-5" points="147.07 174.26 139.75 221.44 133 211.29 144.66 173.93 147.07 174.26"/><path class="cls-6" d="M47.89,350.63l11.94,18.16s7.26,9.78,1.65,14.73L0,339.44l17.25-11.83Z" transform="translate(4.98)"/><g class="cls-7"><path class="cls-5" d="M53.9,356.59s-12.73-9.39-21.75-12.42l-.77,8.35L29,342.4,12.8,330.66-5,333.7s4.1,15,4.56,15.1,65.85,44,65.85,44l-.14-17.9Z" transform="translate(4.98)"/><path class="cls-8" d="M56.07,362.27a.48.48,0,0,1-.35-.16c0-.05-4.53-4.94-15.78-3.82a.47.47,0,0,1-.51-.41.46.46,0,0,1,.41-.51c11.77-1.19,16.39,3.9,16.58,4.12a.47.47,0,0,1,0,.66A.47.47,0,0,1,56.07,362.27Z" transform="translate(4.98)"/><path class="cls-8" d="M55.1,359.76a.46.46,0,0,1-.29-.1c-.08-.06-8.19-6.37-16.44-4a.46.46,0,1,1-.26-.89c8.72-2.51,16.94,3.88,17.28,4.16a.46.46,0,0,1,.08.65A.47.47,0,0,1,55.1,359.76Z" transform="translate(4.98)"/></g><path class="cls-6" d="M223.3,337l32.5,7.22s12.14,1,12.17,8.45l-66.59,17.11-4.65-20.41Z" transform="translate(4.98)"/><g class="cls-9"><path class="cls-5" d="M242.7,340.62S227.26,344,219,348.82l5.78,6.08-9.21-4.85-12.41,4.29-14.79,6s19.39,16.22,19.75,15.93,69.41-20.43,69.41-20.43L264,344.12Z" transform="translate(4.98)"/><path class="cls-8" d="M234.42,352.45a.44.44,0,0,1-.27-.09.46.46,0,0,1-.11-.65c6.85-9.64,13.73-9.76,14-9.76h0a.47.47,0,0,1,.46.47.46.46,0,0,1-.46.46c-.07,0-6.71.16-13.26,9.38A.49.49,0,0,1,234.42,352.45Z" transform="translate(4.98)"/><path class="cls-8" d="M231.36,352a.48.48,0,0,1-.2,0,.47.47,0,0,1-.22-.62c3.85-8.22,14.07-10.19,14.51-10.27a.46.46,0,0,1,.54.37.45.45,0,0,1-.37.54c-.1,0-10.19,2-13.84,9.76A.47.47,0,0,1,231.36,352Z" transform="translate(4.98)"/></g><path class="cls-3" d="M90.58,162.48S79.7,169.89,76.7,202.12l-5.91,45.25L7.87,322.14l44.85,34.73,53.07-85.2s9.13-10.07,15.26-38l22.19-71.16Z" transform="translate(4.98)"/><path class="cls-4" d="M99.74,163.88c-.11.11-2.76,2.63-5.92,8.69-2.91,5.56-6.81,15.28-8.9,30l-5.36,45.86L16.22,328.6l.74.58L80.37,249l.08-.11,5.39-46.11c4-27.89,14.43-38.07,14.54-38.17Z" transform="translate(4.98)"/><path class="cls-5" d="M122.36,83a2.82,2.82,0,0,0-2.4-1,32.71,32.71,0,0,1-3.42-.64.32.32,0,0,0-.17,0A6,6,0,0,0,113.48,83a2.89,2.89,0,0,0-.45,2.86c0,.18.12.34.18.51A3.18,3.18,0,0,0,110,88.07a3.45,3.45,0,0,0-.2,1.8,4.22,4.22,0,0,0-3.13.47A3.1,3.1,0,0,0,105.36,92a4.19,4.19,0,0,0-3.56,0A5.44,5.44,0,0,0,100,93.19a1.73,1.73,0,0,0-.32.49,6.14,6.14,0,0,0-1.31-.8,3.94,3.94,0,0,0-2.22-.54,7.61,7.61,0,0,0-1.33.33,9.09,9.09,0,0,1-1.36.27,14,14,0,0,0-2.8.45.32.32,0,0,0-.2.45,8.91,8.91,0,0,0,1.92,2.27,5.33,5.33,0,0,0,2.58,1.35,5.53,5.53,0,0,0,3.13-.7,3.8,3.8,0,0,0,1.56-1.54,2.94,2.94,0,0,0,2.42,2.22,4.37,4.37,0,0,0,2-.41A9.41,9.41,0,0,0,106,96a3.25,3.25,0,0,0,.75-.78,5.71,5.71,0,0,0,.7.35,2.28,2.28,0,0,0,1.79.09,5.1,5.1,0,0,0,1.47-1,4,4,0,0,0,1.1-1.78,4.11,4.11,0,0,0,2.45.52,7.84,7.84,0,0,0,4-2,3.41,3.41,0,0,0,1.22-1.83,3.17,3.17,0,0,0,0-.53c1.65-.24,3.26-.93,3.57-2.73A4.85,4.85,0,0,0,122.36,83Z" transform="translate(4.98)"/><path class="cls-5" d="M149.13,80.67a2.78,2.78,0,0,0,3.7.77,4.17,4.17,0,0,0,.29.44,3,3,0,0,0,1.67,1.05,5.49,5.49,0,0,0,3.67-.09,3.15,3.15,0,0,0,1.43-1.57,3.78,3.78,0,0,0,1.58,1.06,4.1,4.1,0,0,0,1.46.21,1.61,1.61,0,0,0,1.19-.9,4,4,0,0,0,.31-.62,2.48,2.48,0,0,0,.88.34,6,6,0,0,0,1.79,0,2.82,2.82,0,0,0,1.56-.54,3,3,0,0,0,.62-3,3.09,3.09,0,0,0,1.78.65,3.64,3.64,0,0,0,2.46-.81,4.72,4.72,0,0,0,1.14-2.35,9.59,9.59,0,0,0,.26-2.85.31.31,0,0,0-.35-.31,9.76,9.76,0,0,0-2.12.87,5.08,5.08,0,0,1-1,.38,5.41,5.41,0,0,0-1.06.32,3.1,3.1,0,0,0-1.27,1.48,6,6,0,0,0-.53,1.29,1.65,1.65,0,0,0-.44-.28,3.89,3.89,0,0,0-1.78-.19,2.91,2.91,0,0,0-2.45,1.57,2.74,2.74,0,0,0-1.66-.84,2.82,2.82,0,0,0-2.35,1,4,4,0,0,0-1-1.48,2.23,2.23,0,0,0-3,0c0-.18-.07-.36-.12-.53a3.21,3.21,0,0,0-1.63-2.3,4.21,4.21,0,0,0-2.75-.15.24.24,0,0,0-.11.08,27.33,27.33,0,0,1-2,2.12,2.4,2.4,0,0,0-1.16,2A6,6,0,0,0,149.13,80.67Z" transform="translate(4.98)"/><ellipse class="cls-6" cx="133.15" cy="67.97" rx="19.08" ry="20.29" transform="translate(-11.27 62.68) rotate(-25.01)"/><polygon class="cls-6" points="129.26 72.66 131.23 90.47 116.17 92.84 144.47 123.91 162.73 84.94 149.67 87.15 145.72 71.42 129.26 72.66"/><path class="cls-2" d="M124.11,90.81s14.08,18.6,23.33-4.12l10.31-1.75,9.93,35-4.29,57.65-82.73.81,30.53-85.53Z" transform="translate(4.98)"/><path class="cls-5" d="M118.7,72.42A72.12,72.12,0,0,1,127.12,68a13.58,13.58,0,0,1,.19-7.14s.57,4.09,1.82,5.94a64.89,64.89,0,0,1,13-4.34,16.85,16.85,0,0,0-2.56-5.72s2.12.62,4.06,5.57a45.44,45.44,0,0,1,7.72-.15s-2.6-13-17.91-15.2c0,0-5.09-.58-6.6,1.75,0,0-3.66-.86-9.55,4A20.39,20.39,0,0,0,112.15,75Z" transform="translate(4.98)"/><path class="cls-6" d="M78.73,148.74s-1.3-9.56,8.24-19.49l6.23,12.18Z" transform="translate(4.98)"/><path class="cls-6" d="M123.35,73.31c2.41,3,2.14,7.21-.61,9.32S115.81,84,113.4,81s-2.14-7.21.61-9.32S120.94,70.27,123.35,73.31Z" transform="translate(4.98)"/><path class="cls-5" d="M163.92,97s3.76,13.32,1.4,26.08l3.37-2.86S169.36,103.7,163.92,97Z" transform="translate(4.98)"/><path class="cls-5" d="M144.16,85A18.14,18.14,0,0,1,128.73,87a.47.47,0,0,0-.6.28.48.48,0,0,0,.29.6,18.07,18.07,0,0,0,10.28.46A20.29,20.29,0,0,0,144.39,86Z" transform="translate(4.98)"/><path class="cls-2" d="M111.19,92.84s-21.1,1.8-31.93,30.89c0,0-3.19,8.79-8.29,9.28,0,0,10.43,15.45,31.55,8.22Z" transform="translate(4.98)"/><path class="cls-5" d="M128.49,71.93l0-.08a2,2,0,0,1-.08-.33.82.82,0,0,1,0-.27l0-.1c0-.1,0-.2,0-.3a1.67,1.67,0,0,1,.07-.3.91.91,0,0,1,.22-.38l0-.09,0,0,.19-.19.05,0a1.25,1.25,0,0,1,.6-.24.92.92,0,0,1,.37,0,1.43,1.43,0,0,1,.33.1l.06,0,.14.08.16.08s0,0,.05,0l.2.19,0,0a1.29,1.29,0,0,1,.09.16s.05.07.08.13v0s0,0,0,.06a2.33,2.33,0,0,1,.08.31s0,.07,0,.11a1.92,1.92,0,0,1-.11.82,2.53,2.53,0,0,1-.2.36l-.06.07a2.83,2.83,0,0,1-.25.24,1.36,1.36,0,0,1-.75.29,1.46,1.46,0,0,1-.62-.08,1.51,1.51,0,0,1-.35-.2A1.68,1.68,0,0,1,128.49,71.93Z" transform="translate(4.98)"/><path class="cls-5" d="M138.6,69a1.47,1.47,0,0,1-.06-.42,1.21,1.21,0,0,1,0-.19,2.19,2.19,0,0,1,.26-.82,1.3,1.3,0,0,1,.28-.34,1.52,1.52,0,0,1,.28-.19,1.39,1.39,0,0,1,.44-.12h.06a1.67,1.67,0,0,1,.32,0,1.32,1.32,0,0,1,.9.44,1.7,1.7,0,0,1,.43,1.11v.13s0,0,0,.08a1.67,1.67,0,0,1-.21.82l0,.08a2.31,2.31,0,0,1-.2.24c-.08.07-.18.13-.26.19l-.09,0a2,2,0,0,1-.31.12h-.08a1.82,1.82,0,0,1-.4,0h-.05a1.5,1.5,0,0,1-.6-.18l-.07,0-.21-.17s0,0,0,0a1.39,1.39,0,0,1-.33-.65Z" transform="translate(4.98)"/><path class="cls-5" d="M136.77,75.2a.49.49,0,0,1-.61-.32c-.25-.93-.51-1.86-.76-2.79a.51.51,0,0,1,.33-.61.5.5,0,0,1,.61.32l.75,2.79A.49.49,0,0,1,136.77,75.2Z" transform="translate(4.98)"/><path class="cls-5" d="M133.13,79.61a7.08,7.08,0,0,0,7.23-1.73c.44-.45,1.19.19.75.64a8,8,0,0,1-8.16,2,.51.51,0,0,1-.39-.58A.48.48,0,0,1,133.13,79.61Z" transform="translate(4.98)"/><path class="cls-6" d="M156.78,139.08l14.55-7.73c5.94-4.35,2.42-7.06,2.42-7.06,1.39-4.83-2-5.42-2-5.42.07-5.79-3.42-4.8-3.42-4.8,4.95-8.44-1.45-7.2-1.45-7.2l-4.4,2.38c6.42-5.25,2.46-9,2.46-9l-8.23,4.86a14.15,14.15,0,0,0-7.71,6.44l-4.86,5-53.26,26-12.13,6.17s1.75,24.51,25.11,16.69Z" transform="translate(4.98)"/><path class="cls-5" d="M165.83,116.31a.45.45,0,0,1-.48-.18.46.46,0,0,1,.09-.65l1.64-1.21a.47.47,0,0,1,.56.75L166,116.23A.53.53,0,0,1,165.83,116.31Z" transform="translate(4.98)"/><path class="cls-5" d="M167.6,122.67a.47.47,0,0,1-.38-.83l3.5-2.6a.47.47,0,0,1,.55.75l-3.5,2.6A.53.53,0,0,1,167.6,122.67Z" transform="translate(4.98)"/><path class="cls-5" d="M169.23,128.6a.44.44,0,0,1-.48-.17.46.46,0,0,1,.09-.65l3.94-3a.47.47,0,1,1,.57.75l-3.95,3A.38.38,0,0,1,169.23,128.6Z" transform="translate(4.98)"/><path class="cls-5" d="M112.56,109.36s3.78,11.34-.64,22.92l5.57-2.72S118.62,115.55,112.56,109.36Z" transform="translate(4.98)"/><path class="cls-10" d="M237.07,114.9l-5.5.4-2.48-33.93-32.4,2.36h0l.9,12.38a12.41,12.41,0,0,1-11.48,13.28h0a12.41,12.41,0,0,1-13.28-11.48l-.9-12.38h0l-32.42,2.37L146,177.56,235.63,171l-2.26-31,5.51-.41a12.41,12.41,0,0,0-1.81-24.75Z" transform="translate(4.98)"/><path class="cls-6" d="M174.08,108c4.28,7.89,6.52.8,6.52.8,5.51,6.71,6.55.44,6.55.44,5.14,7,6.71-.12,6.71-.12,1.46,3.49,4.15,3.05,4.15,3.05,2.36-.93,1.55-5,1.55-5l-.63-4.86s-1.67-5-6.33-1c0,0-3.56-4.53-7,.78,0,0-3-4.62-6.52-.32,0,0-3.16-4.54-6.19.77C172.93,102.51,171.81,103.75,174.08,108Z" transform="translate(4.98)"/><line class="cls-11" x1="198.02" y1="102.73" x2="198.66" y2="108.06"/><line class="cls-11" x1="190.92" y1="103.16" x2="191.74" y2="107.84"/><line class="cls-11" x1="184.26" y1="102.91" x2="185.08" y2="107.59"/><path class="cls-6" d="M511.4,245.52l18.07,12.08s9.72,7.33,14.71,1.76l-39.85-55.28L488.62,214.7Z" transform="translate(4.98)"/><g class="cls-12"><path class="cls-13" d="M517.31,251.57s-9.28-12.8-12.24-21.85l8.35-.7-10.1-2.49-11.61-16.26,3.17-17.76c7.69,2.17,17.32,19.51,15.07,4.68.07.46,43.51,66.19,43.51,66.19l-17.9-.28Z" transform="translate(4.98)"/></g><path class="cls-14" d="M357.19,226.42,402.46,281s23.2,31.57,50.86,10.48l62.39-40.25-26.37-37.09-55,34-24.76-30.45-12.39-18.21s-56.65,5-57,5.13S357.19,226.42,357.19,226.42Z" transform="translate(4.98)"/><polygon class="cls-6" points="354.37 86.88 355.84 106.32 374.39 110.28 344.19 140.33 319.97 88.99 335.72 99.29 336.13 89.2 354.37 86.88"/><path class="cls-15" d="M353,106.2l16.4,4.08,16.1,4.5a60.82,60.82,0,0,1,20.79,9.71l31.75,21s18.63,8.73,7.57,28.93l-45,14.72,2.53,7.56s3.6,8.28-5.81,9.74c-2.66.41-75.2,2.18-75.2,2.18s-10.22,1.56-8.73-9.54L315,181l-8.37-43.87-21.95-33.91s-7.82-9.81-10.92-25.66L266.55,51a14.42,14.42,0,0,1-.78-9.09l-2.22-6.43s12.75-6.54,23.5-7.76l1.78,5s5,.67,7.64,9.42l6,23.73,29.72,38,6.52,17.19Z" transform="translate(4.98)"/><polygon class="cls-16" points="336.79 102.05 343.85 120.09 355.84 106.32 355.37 100.15 362.2 107.68 352 129.4 343.44 121.71 334.13 127.32 336.79 102.05"/><path class="cls-6" d="M319.3,79.9C316.73,90.81,323,101.61,333.22,104s20.66-4.47,23.23-15.38-3.67-21.71-13.93-24.13S321.87,69,319.3,79.9Z" transform="translate(4.98)"/><path class="cls-5" d="M318.8,83,321,79.68a41.28,41.28,0,0,0,7.83-1.61l1.7-6.79-.44,6.46s6.85.33,11.62-1.13l.55-7.12,1.36,6.67s2.62,1.15,7.34.28a33.28,33.28,0,0,1,5.93,10,15.49,15.49,0,0,0,2.63-13.88s-3.3-11.36-18.32-11.63c0,0-4.27-.36-6.57.55-6.15-.62-11.24,5.39-11.4,5.43C323.26,66.89,314.43,74.73,318.8,83Z" transform="translate(4.98)"/><path class="cls-6" d="M350.9,83.48c-1.74,3.47-.62,7.5,2.5,9s7.06-.09,8.8-3.55.63-7.5-2.49-9S352.65,80,350.9,83.48Z" transform="translate(4.98)"/><path class="cls-5" d="M343.66,85.16a.34.34,0,0,0,0-.1,2.23,2.23,0,0,0,0-.36,1.22,1.22,0,0,0-.09-.27.37.37,0,0,0,0-.11,1.58,1.58,0,0,0-.09-.31,1.83,1.83,0,0,0-.18-.29,1.12,1.12,0,0,0-.34-.31l-.08-.08,0,0-.26-.14-.06,0a1.47,1.47,0,0,0-.69-.05,1.29,1.29,0,0,0-.38.12,2.17,2.17,0,0,0-.3.21l-.06,0-.11.13-.14.14,0,.06c0,.08-.1.18-.14.26l0,.07c0,.06,0,.12,0,.18s0,.1,0,.16v0s0,0,0,.06a2,2,0,0,0,0,.35s0,.08,0,.12a1.84,1.84,0,0,0,.37.8,1.87,1.87,0,0,0,.32.31l.09.06a1.68,1.68,0,0,0,.33.16,1.49,1.49,0,0,0,.86.06,1.52,1.52,0,0,0,.6-.29,1.11,1.11,0,0,0,.3-.31A1.43,1.43,0,0,0,343.66,85.16Z" transform="translate(4.98)"/><path class="cls-5" d="M332.4,85.44a1.7,1.7,0,0,0-.08-.45,1.59,1.59,0,0,0-.07-.2,2.33,2.33,0,0,0-.53-.75,1.4,1.4,0,0,0-.39-.26,1.29,1.29,0,0,0-.35-.1,1.16,1.16,0,0,0-.5,0h-.06a2,2,0,0,0-.33.08,1.5,1.5,0,0,0-.79.74,1.93,1.93,0,0,0-.08,1.28l0,.13s0,.06,0,.09a1.83,1.83,0,0,0,.48.77l.08.06a2.68,2.68,0,0,0,.28.18,1.83,1.83,0,0,0,.33.11.38.38,0,0,0,.1,0l.36,0H331a1.79,1.79,0,0,0,.41-.13h0a1.64,1.64,0,0,0,.56-.38l.05-.06a1.25,1.25,0,0,0,.16-.24l0,0a1.59,1.59,0,0,0,.13-.77S332.4,85.48,332.4,85.44Z" transform="translate(4.98)"/><path class="cls-5" d="M336.24,91.16a.55.55,0,0,0,.52-.53l-.12-3.09a.53.53,0,1,0-1.05,0l.12,3.09A.54.54,0,0,0,336.24,91.16Z" transform="translate(4.98)"/><path class="cls-5" d="M341.37,94.5a7.58,7.58,0,0,1-7.95.55c-.6-.32-1.16.57-.56.89a8.61,8.61,0,0,0,9-.51.55.55,0,0,0,.21-.71A.53.53,0,0,0,341.37,94.5Z" transform="translate(4.98)"/><path class="cls-11" d="M340.6,79.2a5.52,5.52,0,0,1,3.89.5" transform="translate(4.98)"/><path class="cls-15" d="M445.62,175.32s-8.4,17-34.59,15.59l-42-3.47,6.25-35.6s40.72,4.16,41,4.07S453.27,153.58,445.62,175.32Z" transform="translate(4.98)"/><path class="cls-6" d="M362,139.89s-7.69.57-6.1,8.51l.91,4.66-9,1.85s-3.64.42-2.24,4.73c0,0,.87,3.41,3,3.52,0,0-2.12,3.22,1.48,6.85,0,0-1.89,2.46,2.31,5.52,0,0-2.06,2.57,1.72,3.75.36.11,14.89-.55,14.89-.55l1.4,0,4.37-23.89-8.08-2.37S364.36,150.83,362,139.89Z" transform="translate(4.98)"/><line class="cls-11" x1="355.49" y1="162.98" x2="360.98" y2="162.48"/><line class="cls-11" x1="356.94" y1="169.53" x2="361.51" y2="169.11"/><line class="cls-11" x1="358.73" y1="175.14" x2="362.6" y2="174.79"/><path class="cls-5" d="M377.05,152l41.22,2.9s23.64,1.25,27.89,11c0,0,1.84-10.81-25.43-13C420.73,152.84,387.19,150.25,377.05,152Z" transform="translate(4.98)"/><path class="cls-5" d="M388.09,126.85s-6.82,11.08,2.49,25l-2.45.34S379.17,136.82,388.09,126.85Z" transform="translate(4.98)"/><path class="cls-5" d="M372.07,187.69s1.33,1.81,13,2.88l16.47,1.12-.73-1.63Z" transform="translate(4.98)"/><path class="cls-11" d="M268.29,40.77a178.1,178.1,0,0,1,18.07-7.14" transform="translate(4.98)"/><path class="cls-16" d="M340.34,128.34a1.48,1.48,0,1,1-1.48-1.48A1.47,1.47,0,0,1,340.34,128.34Z" transform="translate(4.98)"/><path class="cls-6" d="M282.67,406,262,412.84s-11.76,3.16-10.44,10.52l68.1,2.58L321,407Z" transform="translate(4.98)"/><g class="cls-17"><path class="cls-13" d="M274.27,407s15.8.55,24.75,3.78l-4.58,7,8.17-6.43,20,.84,12,13.43c-6.43,4.73-26,1.65-12.95,9-.41-.23-79-6.4-79-6.4l11.22-13.95Z" transform="translate(4.98)"/></g><path class="cls-16" d="M340.32,135.68a1.48,1.48,0,1,1-1.47-1.47A1.47,1.47,0,0,1,340.32,135.68Z" transform="translate(4.98)"/><polygon class="cls-14" points="327.14 208.57 270.79 406.24 327.14 408.56 381.14 207.15 327.14 208.57"/><polygon class="cls-5" points="341.7 208.08 347.85 208.02 372.75 239.17 371.2 244.24 337.11 208.31 341.7 208.08"/><path class="cls-15" d="M319.64,208.57v8.86s47.47,1.67,83.9-8.68l-6.35-9.33Z" transform="translate(4.98)"/><path class="cls-11" d="M322.16,208.57s44.33,4.39,76.55-3" transform="translate(4.98)"/><path class="cls-5" d="M348.37,100.93a.5.5,0,0,0-.68-.18c-8.21,4.91-13.72,3.69-15.11,3.25l.45,1.17a13.4,13.4,0,0,0,3,.32c2.82,0,7-.76,12.19-3.88A.48.48,0,0,0,348.37,100.93Z" transform="translate(4.98)"/><path class="cls-5" d="M374,180.66c-.75-5.26-6.82-7.53-11.37-8.27a24.84,24.84,0,0,0-16.81,3,21,21,0,0,0-9.28,12.13,18.65,18.65,0,0,0-.64,3.92c-.09,1.66.06,3.32,0,5a10.62,10.62,0,0,1-1,4.51,13.1,13.1,0,0,1-2.36,3.22c-3.7,3.81-9.34,6.41-10.94,11.87a11.21,11.21,0,0,0-.21,4.28,5.31,5.31,0,0,1-.82,4.06c-1.44,1.76-3.91,2.4-5.84,3.44a9.93,9.93,0,0,0-4.94,5.95,3.88,3.88,0,0,0,.56,3.7,2.47,2.47,0,0,0,2.32.82c1-.22,2.05-.52,3.07-.78l16.78-4.26,19-4.83,5.81-1.48c.39-.1.81-.17,1.2-.3a.82.82,0,0,0,.51-.6c1.33-3.9,2.58-7.82,3.87-11.73l6.44-19.49,4.35-13.19c.07-.22.15-.44.22-.66A.38.38,0,0,0,374,180.66Z" transform="translate(4.98)"/><ellipse class="cls-6" cx="373.54" cy="200.68" rx="20.68" ry="21.34"/><path class="cls-18" d="M354.81,181.23c0-.25-.12-4.07,8.26-5.65,0,0,9.62-1.42,12.61,4.74Z" transform="translate(4.98)"/><polygon class="cls-6" points="364.63 203.78 362.48 223.63 340.91 228.16 369.45 264.89 397.25 231.83 381.72 224.75 382 207.18 364.63 203.78"/><path class="cls-5" d="M351,201.24s.55,3.6,4.71-8.09c0,0,2,7.09,8.7-5.16,0,0,2.66,6.78,10.89-7.5,0,0-.63-2.14-6-2.7,0,0-16.84-2.71-22.84,13.08C346.45,190.87,341.64,204.33,351,201.24Z" transform="translate(4.98)"/><path class="cls-19" d="M296.58,248.45l-7.09,3.19-10.42,33.09s7,1.64,22.72-5.9L333.05,263Z" transform="translate(4.98)"/><path class="cls-5" d="M373.4,180.15a22.05,22.05,0,0,0,5.8,9.35s1.91,2,3,.63c0,0,.59,4.36,6.28,9.1l3.8-.87s-.64-9-9.78-16.88C382.49,181.48,377.41,176.28,373.4,180.15Z" transform="translate(4.98)"/><path class="cls-6" d="M355.19,202.7c1.35,3.94,0,7.86-3,8.75s-6.55-1.56-7.89-5.5,0-7.86,3-8.75S353.85,198.76,355.19,202.7Z" transform="translate(4.98)"/><path class="cls-6" d="M459.1,324.06h0l15,1.4c3.09,2.53-.27,3.64-.27,3.64L460.77,329l12.59,3.82c4.52,3.36.54,6,.54,6,4,4.31-.81,6.2-.81,6.2,3,5.37-2.24,5.45-2.24,5.45l-16.26-3.17s-5.3-1-8.09-3.27l1.14,7.43s1.1,5.45-4.38,5.76a79.63,79.63,0,0,0-5.38-15.33,81.93,81.93,0,0,1-3.7-9.28C396.7,299,384.8,266.71,384.8,266.71l27.41-11.39C426.44,287.5,459.1,324.06,459.1,324.06Z" transform="translate(4.98)"/><path class="cls-11" d="M470.93,344.61s-8.43-1.07-14.4-4.1" transform="translate(4.98)"/><path class="cls-11" d="M472,338.67s-9.09-1.85-13.18-4.29" transform="translate(4.98)"/><path class="cls-6" d="M383.35,202.7c-1.34,3.94,0,7.86,3,8.75s6.55-1.56,7.89-5.5,0-7.86-3-8.75S384.7,198.76,383.35,202.7Z" transform="translate(4.98)"/><path class="cls-18" d="M356.27,223.89s7.43,13.61,22.18,1.64l13.82,6.3s12.08,4.44,18.48,19c0,0,6.57,12.63,10.39,18.12,0,0-8.89,20.95-34.83,13.22l-53.54-12.81-19,8.07s-9.64-6.74-17.62-30.35l19.78-11.56a68.15,68.15,0,0,1,20-7.35Z" transform="translate(4.98)"/><path class="cls-6" d="M405.62,496.66,427.38,505s12.44,4,10.64,11.8H356.88l7.65-21.08Z" transform="translate(4.98)"/><g class="cls-20"><path class="cls-21" d="M414.58,498.1s-17-.22-26.72,2.77l4.55,7.76L384,501.32l-21.43-.13L349,515s13,10.53,13.42,10.31,84.91-2.77,84.91-2.77L436,507Z" transform="translate(4.98)"/><path class="cls-8" d="M430.37,502.53s-17.62.34-24,11.31h-33s-1.74-8.06-14.3-10.06l-5.82,16.63,89.95-2.16S444.17,505.94,430.37,502.53Z" transform="translate(4.98)"/><path class="cls-22" d="M419.73,501.29s-7.15-1.66-16.59,6.65" transform="translate(4.98)"/><path class="cls-22" d="M417.32,499.71s-11.31-.54-17.25,7" transform="translate(4.98)"/></g><path class="cls-6" d="M290.32,490.51,308,505.71s10.37,7.94,6.05,14.69l-76.42-27.27,14.3-17.29Z" transform="translate(4.98)"/><g class="cls-23"><path class="cls-21" d="M298.27,494.88s-15.9-5.91-26.09-6.37l1.67,8.83-5.47-9.72-20.14-7.32-17.44,8.39S239.48,503,240,502.91s80.9,25.93,80.9,25.93l-5.43-18.42Z" transform="translate(4.98)"/><path class="cls-8" d="M311.66,504.37s-16.71-5.62-26.43,2.57l-31.09-11.1s1.07-8.18-10.08-14.28L233,495.26l85.44,28.21S323.51,512.22,311.66,504.37Z" transform="translate(4.98)"/><path class="cls-22" d="M302.05,499.61s-6.17-4-17.85.69" transform="translate(4.98)"/><path class="cls-22" d="M300.31,497.32s-10.46-4.31-18.59.77" transform="translate(4.98)"/></g><path class="cls-24" d="M284.72,384l16.51-48.11c7.65-20.95,20.18-30.15,20.18-30.15l11.36-36.42L344,252.78c2-9.64,2-26.73,2-26.73l7.64-1.61s.29,15.6,0,27.68l23.65,2.77s6.4-13.71,8.46-26l6.53,3s-.81,9.65-6,25.83l7.08,26-9.85,34.87s2.33.89,1.22,11.42l-32.78,32.81-40.38,91.12-18.11,38-46.52-17.74Z" transform="translate(4.98)"/><path class="cls-24" d="M346.75,366.76,376.91,410l-23.52,86.54h53.48l17.74-69.59s6.87-24.07-7.76-46.9L384.7,329.93Z" transform="translate(4.98)"/><path class="cls-3" d="M345.57,267.91l36.75,4.33s-4.27,25.32-24.94,23.72C357.38,296,336.65,293.63,345.57,267.91Z" transform="translate(4.98)"/><path class="cls-25" d="M332.3,328.73s-4.16,11.63-18.56,12.26" transform="translate(4.98)"/><path class="cls-3" d="M321.64,326.46a.51.51,0,0,0-.71,0c-.38.42-9.36,10.69-22,47.75L280.94,419l-25.58,58.36.94.36,25.56-58.33,18-44.75c12.61-36.83,21.76-47.33,21.85-47.43A.5.5,0,0,0,321.64,326.46Z" transform="translate(4.98)"/><path class="cls-3" d="M386.91,405.09l-30.62-47.44a.5.5,0,1,0-.84.54L386,405.45,364,496.53h1l21.93-91A.49.49,0,0,0,386.91,405.09Z" transform="translate(4.98)"/><path class="cls-5" d="M348.76,369.73s8.14-20.9,19.73-26.88c0,0-10.91,7.84-11.62,38.5Z" transform="translate(4.98)"/><path class="cls-6" d="M279.07,284.73c-15-1.29-14.55-18.87-14.55-18.87V220.64l-8-3.59,10.11-11.87,31.11,7.43s-.19,6.19-6.17,12.39l1.33,38.94s.76,11.88,17.7,10.45l-14.1,7.35S289.62,285.65,279.07,284.73Z" transform="translate(4.98)"/><path class="cls-5" d="M361.51,201.71a.28.28,0,0,1,0-.09,2.11,2.11,0,0,1,0-.36,1.29,1.29,0,0,1,.08-.28s0-.08,0-.11a1.81,1.81,0,0,1,.09-.31,1.85,1.85,0,0,1,.17-.29,1.3,1.3,0,0,1,.34-.32l.08-.07,0,0,.26-.14.06,0a1.47,1.47,0,0,1,.69-.06,1.29,1.29,0,0,1,.38.12,1.52,1.52,0,0,1,.31.21.1.1,0,0,1,.05,0,.68.68,0,0,1,.12.12.86.86,0,0,0,.14.13l0,.07c.05.08.1.18.14.26l0,.07a1,1,0,0,1,0,.18s0,.09,0,.16v0a.25.25,0,0,1,0,.07c0,.11,0,.23,0,.35a.43.43,0,0,1,0,.11,1.92,1.92,0,0,1-.36.81,1.87,1.87,0,0,1-.32.31.24.24,0,0,1-.08.06,2.59,2.59,0,0,1-.33.17,1.49,1.49,0,0,1-.86.07,1.7,1.7,0,0,1-.61-.28,1.11,1.11,0,0,1-.3-.31A1.56,1.56,0,0,1,361.51,201.71Z" transform="translate(4.98)"/><path class="cls-5" d="M372.78,201.86a1.69,1.69,0,0,1,.07-.45,1.18,1.18,0,0,1,.07-.2,2.24,2.24,0,0,1,.52-.76,1.27,1.27,0,0,1,.39-.26,1.2,1.2,0,0,1,.35-.11,1.32,1.32,0,0,1,.49,0h.06a1.21,1.21,0,0,1,.33.07,1.47,1.47,0,0,1,.8.73,1.82,1.82,0,0,1,.1,1.28s0,.08,0,.13,0,.06,0,.09a1.71,1.71,0,0,1-.47.77l-.07.07-.28.18c-.11.05-.22.08-.33.12l-.11,0a2,2,0,0,1-.35,0h-.09a2.2,2.2,0,0,1-.41-.12h-.05a1.7,1.7,0,0,1-.57-.37.18.18,0,0,1-.05-.07,2.07,2.07,0,0,1-.17-.24l0-.05a1.53,1.53,0,0,1-.13-.76A.34.34,0,0,1,372.78,201.86Z" transform="translate(4.98)"/><path class="cls-5" d="M369,207.62a.53.53,0,0,1-.53-.52l.08-3.09a.53.53,0,0,1,.52-.53.52.52,0,0,1,.53.52l-.08,3.09A.54.54,0,0,1,369,207.62Z" transform="translate(4.98)"/><path class="cls-5" d="M364.92,210.5a7.58,7.58,0,0,0,7.95.45c.59-.33,1.17.55.57.88a8.6,8.6,0,0,1-9-.4.53.53,0,0,1-.22-.71A.52.52,0,0,1,364.92,210.5Z" transform="translate(4.98)"/><path class="cls-11" d="M377.3,195.71a5.46,5.46,0,0,0-3.89.52" transform="translate(4.98)"/><path class="cls-11" d="M356.71,218.79s8.93,6.34,17.52,2.28" transform="translate(4.98)"/><path class="cls-6" d="M287.76,218.75c-3.13-12.64-.13-18.57-.13-18.57s-1.25-12.62,6.5-12l1.71,12a70.37,70.37,0,0,1,1.87,12.37Z" transform="translate(4.98)"/><path class="cls-6" d="M258.41,216.52c9.15-3.1,2.46-7.34,2.46-7.34,8.25-4.79,2.08-7.45,2.08-7.45,8.42-4.32,1.57-7.77,1.57-7.77,3.94-.88,4.16-4.09,4.16-4.09-.36-3-4.74-3-4.74-3l-5.15-.4s-5.55.76-2.57,7.08c0,0-5.53,3.06-1,8.22,0,0-5.47,2.35-2,7.45,0,0-5.44,2.59-.77,7.33C252.54,216.59,253.54,218.17,258.41,216.52Z" transform="translate(4.98)"/><line class="cls-11" x1="262.81" y1="193.62" x2="268.43" y2="194.12"/><line class="cls-11" x1="261.47" y1="201.91" x2="266.47" y2="202.06"/><line class="cls-11" x1="259.54" y1="209.54" x2="264.54" y2="209.68"/><path class="cls-19" d="M249.53,265.48l8.68,13.17s4.42,6.73,2.71,13.75L245,265.69Z" transform="translate(4.98)"/><path class="cls-6" d="M304.08,500.06l-18.41,14.3s-10.75,7.41-6.77,14.37l77.68-23.44-13.34-18.06Z" transform="translate(4.98)"/><g class="cls-26"><path class="cls-5" d="M295.93,504s16.17-5.11,26.37-5.06l-2.1,8.74,5.95-9.44L346.63,492l17,9.24s-9.37,13.83-9.86,13.75-82.09,21.88-82.09,21.88L278,518.69Z" transform="translate(4.98)"/><path class="cls-13" d="M282.09,512.83s17-4.77,26.27,3.88L340,507.18s-.66-8.23,10.79-13.76l10.37,14.23-86.74,23.92S269.86,520.08,282.09,512.83Z" transform="translate(4.98)"/><path class="cls-27" d="M291.92,508.56s6.36-3.65,17.8,1.58" transform="translate(4.98)"/><path class="cls-27" d="M293.77,506.36s10.67-3.79,18.53,1.7" transform="translate(4.98)"/></g><ellipse class="cls-6" cx="168.96" cy="195.9" rx="22.62" ry="20.68" transform="translate(-40.22 341) rotate(-83.34)"/><polygon class="cls-6" points="184.49 200.61 186.01 220.52 216.89 229.67 172.94 267.31 144.21 223.71 166.75 220.17 167.01 203.46 184.49 200.61"/><path class="cls-5" d="M149.52,190.56s4.37-.2,8.55-5.86c0,0-2.06,8.19,6.63-1.22,0,0,0,6.23,12.43-.54,0,0-1.07,7.14,8.38,14.46l6.75-3.38s1.75-16-7.54-16.48c0,0,.66-4.93-13-6.63,0,0-11.84-2.25-19.6,4.89,0,0-2.76,2.92-5.88,1.45,0,0-.24,3.5,2.91,4.61,0,0-1.34,1.64-5.68,1.85a6,6,0,0,0,4.12,3.17s.62.65-1.4,2.51C146.19,189.39,146.9,190.87,149.52,190.56Z" transform="translate(4.98)"/><polygon class="cls-19" points="124.77 283.36 131.94 276.56 123.3 253.83 105.22 257.52 124.77 283.36"/><path class="cls-28" d="M162,338.31l-22.32,63.91s-7.39,16.29,2.62,36.57l26.16,66.26,49.8.47-35.55-89.18,40.85-78.44Z" transform="translate(4.98)"/><polygon class="cls-28" points="202.97 338.07 253.08 423.13 306.13 501.03 357.3 484.55 297.28 396.74 262.54 337.67 202.97 338.07"/><path class="cls-6" d="M173.5,505.1l-25.22,9.7s-12.44,4-10.64,11.81h81.14l-7.65-21.09Z" transform="translate(4.98)"/><g class="cls-29"><path class="cls-5" d="M161.08,507.88s17-.23,26.72,2.77l-4.55,7.76,8.43-7.32,21.43-.12,13.59,13.75s-13,10.53-13.41,10.31-84.91-2.77-84.91-2.77l11.31-15.52Z" transform="translate(4.98)"/><path class="cls-13" d="M145.29,512.31s17.62.33,24,11.31h33s1.74-8.07,14.3-10.06l5.82,16.62-90-2.16S131.49,515.72,145.29,512.31Z" transform="translate(4.98)"/><path class="cls-27" d="M155.93,511.06s7.15-1.66,16.58,6.65" transform="translate(4.98)"/><path class="cls-27" d="M158.34,509.48s11.31-.54,17.25,7" transform="translate(4.98)"/></g><polygon class="cls-5" points="207.8 346.27 216.47 360.98 187.64 416.34 207.8 346.27"/><polygon class="cls-5" points="350.66 486.69 303.38 419.44 248.6 331.43 246.91 332.49 301.72 420.56 348.57 487.36 350.66 486.69"/><path class="cls-30" d="M160.3,220.32s10,12.15,22.46.71l25.52,7.57,3.63,1.07s17.92,4,25.9,17.29l11.72,18.52-11.42,6L145,264.89,128.35,278.6l-25.56-24.5,18.45-20.93s5.14-7.43,18-9.46Z" transform="translate(4.98)"/><polygon class="cls-30" points="147.56 254.76 166.93 338.31 262.54 337.67 225.2 250.79 147.56 254.76"/><g class="cls-31"><path class="cls-32" d="M154.07,218.82s5.71,9.85,17.08,10.21c0,0,13.63,1,21-10" transform="translate(4.98)"/></g><path class="cls-6" d="M181.61,197.21c-1.43,3.9.25,8.06,3.76,9.28s7.51-1,8.94-4.87-.25-8.06-3.76-9.28S183,193.3,181.61,197.21Z" transform="translate(4.98)"/><path class="cls-5" d="M177.5,216.9a.5.5,0,0,0-.69-.17c-5.95,3.62-12.78,1.43-15,.54v1.08a21.23,21.23,0,0,0,6.86,1.41,15.42,15.42,0,0,0,8.67-2.18A.49.49,0,0,0,177.5,216.9Z" transform="translate(4.98)"/><path class="cls-5" d="M174.37,197.74s0-.06,0-.09a2.16,2.16,0,0,0,0-.36,1.37,1.37,0,0,0-.07-.29.4.4,0,0,0,0-.11c0-.1,0-.21-.07-.31a2,2,0,0,0-.16-.3,1.29,1.29,0,0,0-.32-.34s0-.05-.08-.08l0,0-.25-.15-.07,0a1.39,1.39,0,0,0-.67-.1,1.24,1.24,0,0,0-.39.1,1.8,1.8,0,0,0-.32.19l-.06,0a.68.68,0,0,0-.12.12l-.15.12,0,.06a2.26,2.26,0,0,0-.16.26l0,.06a1.21,1.21,0,0,0,0,.18.6.6,0,0,0-.05.16v0a.14.14,0,0,0,0,.06,1.93,1.93,0,0,0,0,.34.49.49,0,0,0,0,.12,1.82,1.82,0,0,0,.62,1.16l.08.06a1.69,1.69,0,0,0,.32.19,1.46,1.46,0,0,0,.85.11,1.67,1.67,0,0,0,.62-.24,1,1,0,0,0,.32-.3A1.69,1.69,0,0,0,174.37,197.74Z" transform="translate(4.98)"/><path class="cls-5" d="M163.11,197.28a1.8,1.8,0,0,0-.05-.46.76.76,0,0,0-.06-.2,2.3,2.3,0,0,0-.48-.79,1.44,1.44,0,0,0-.37-.28,1.7,1.7,0,0,0-.34-.12,1.45,1.45,0,0,0-.5,0h-.06a1.75,1.75,0,0,0-.33.06,1.46,1.46,0,0,0-.84.68,1.94,1.94,0,0,0-.21.85,1.54,1.54,0,0,0,0,.43.79.79,0,0,0,0,.13.28.28,0,0,0,0,.09,1.79,1.79,0,0,0,.43.8l.07.06a1.39,1.39,0,0,0,.27.21l.32.13.1,0a2.21,2.21,0,0,0,.35,0h.09a1.72,1.72,0,0,0,.42-.1h.06a1.56,1.56,0,0,0,.58-.34l.06-.06a1.37,1.37,0,0,0,.17-.23.1.1,0,0,0,0-.05,1.52,1.52,0,0,0,.17-.76S163.1,197.32,163.11,197.28Z" transform="translate(4.98)"/><path class="cls-5" d="M166.56,203.23a.53.53,0,0,0,.56-.49c0-1,0-2.06.08-3.09a.53.53,0,1,0-1-.06c0,1-.05,2.06-.08,3.09A.52.52,0,0,0,166.56,203.23Z" transform="translate(4.98)"/><path class="cls-5" d="M171.46,206.91a7.58,7.58,0,0,1-8,0c-.57-.36-1.19.49-.62.85a8.63,8.63,0,0,0,9,.08.55.55,0,0,0,.26-.7A.54.54,0,0,0,171.46,206.91Z" transform="translate(4.98)"/><path class="cls-11" d="M171.7,191.6a5.4,5.4,0,0,1,3.85.75" transform="translate(4.98)"/><path class="cls-6" d="M59.59,221.51s.12,4.22,8.65,14.83L90.62,282.9s9.67,18.77,29.35.29L89.64,224.1l-6.81-21.57-23.24,19" transform="translate(4.98)"/><path class="cls-6" d="M246.52,263.9l-23.17-30.66a37.48,37.48,0,0,0-13.16-5.43l-6.46-1.32s-3,3.33,1.8,7.87l4.95,2.63s-5,1-2.74,5.83c0,0-4.93,1.1-2.62,6.79,0,0-3.54,1.08-.14,6.73l4.83,4.15s2.86,4.44,5.84,4.8l13.8,23s11.1,20.65,24.21,13c0,0,14.71-5.64,2.88-24.31Z" transform="translate(4.98)"/><line class="cls-11" x1="217.03" y1="237.55" x2="221.9" y2="239.48"/><line class="cls-11" x1="214.62" y1="243.57" x2="220.13" y2="246.24"/><line class="cls-11" x1="212.35" y1="250.38" x2="217.45" y2="252.55"/><path class="cls-6" d="M64.83,224.16c9.55,1.47,5.57-5.38,5.57-5.38,9.53-.45,5.29-5.65,5.29-5.65,9.46.05,5-6.17,5-6.17,3.9,1,5.58-1.7,5.58-1.7,1-2.79-2.85-4.82-2.85-4.82L79,197.71s-5.27-1.88-5.54,5.1c0,0-6.32.16-4.64,6.85,0,0-5.93-.44-5.17,5.7,0,0-6-.2-4.07,6.15C59.59,221.51,59.75,223.37,64.83,224.16Z" transform="translate(4.98)"/><path class="cls-6" d="M75.81,226.34c4-12.39,9.86-12.07,9.86-12.07s7.09-11,13.31-6.36l-6.92,9.89s0,7.49-2.94,12.71Z" transform="translate(4.98)"/><line class="cls-11" x1="79.94" y1="203.39" x2="84.69" y2="206.43"/><line class="cls-11" x1="74.92" y1="210.14" x2="79.29" y2="212.57"/><line class="cls-11" x1="69.69" y1="216.01" x2="74.06" y2="218.45"/><path class="cls-33" d="M96.1,162.49V157a12.41,12.41,0,1,0-24.82,0v5.53H38V195H50.38a12.41,12.41,0,0,1,12.41,12.41h0a12.4,12.4,0,0,1-12.41,12.41H38v32.54H129.4V219.84H117a12.41,12.41,0,0,1-12.41-12.41h0A12.41,12.41,0,0,1,117,195H129.4V162.49Z" transform="translate(4.98)"/><path class="cls-34" d="M329,194.47l-7.07.47-.05-.75-2.07-30.83-32.41,2.18h-.05l.84,12.39a12.42,12.42,0,0,1-11.56,13.21h0a12.4,12.4,0,0,1-13.21-11.55l-.83-12.38h0l-32.43,2.18,2.07,30.82.05.76-7.07.47a12.43,12.43,0,0,0-11.56,13.22h0a12.41,12.41,0,0,0,13.22,11.55l7.07-.48,2.28,33.94,32.42-2.17h0l-.83-12.38a12.41,12.41,0,0,1,11.55-13.22h0a12.42,12.42,0,0,1,13.22,11.56l.83,12.38h0l32.43-2.18-2.28-33.94,7.07-.47A12.41,12.41,0,0,0,342.21,206h0A12.41,12.41,0,0,0,329,194.47Z" transform="translate(4.98)"/><path class="cls-35" d="M270.23,3.42H234.78V36h12.41A12.41,12.41,0,0,1,259.6,48.37h0a12.41,12.41,0,0,1-12.41,12.41H234.78V93.31h31.65v7.09a12.41,12.41,0,0,0,24.82,0V93.31h34V60.78H312.85a12.41,12.41,0,0,1-12.41-12.41h0A12.41,12.41,0,0,1,312.85,36h12.42V3.42Z" transform="translate(4.98)"/><path class="cls-6" d="M287.13,8.47c-4.28,7.89-6.52.81-6.52.81-5.51,6.7-6.55.43-6.55.43-5.14,7-6.71-.11-6.71-.11-1.46,3.48-4.15,3-4.15,3-2.36-.93-1.55-5-1.55-5l.63-4.87s1.67-5,6.33-1c0,0,3.56-4.53,7,.78,0,0,3-4.61,6.52-.32,0,0,3.16-4.53,6.19.77C288.28,3,289.4,4.27,287.13,8.47Z" transform="translate(4.98)"/><line class="cls-11" x1="273.16" y1="3.25" x2="272.52" y2="8.58"/><line class="cls-11" x1="280.25" y1="3.68" x2="279.44" y2="8.36"/><line class="cls-11" x1="286.91" y1="3.43" x2="286.1" y2="8.11"/><path class="cls-6" d="M264.36,192.38c4.28,7.89,6.52.8,6.52.8,5.51,6.71,6.55.44,6.55.44,5.14,7,6.71-.12,6.71-.12,1.46,3.49,4.15,3.05,4.15,3.05,2.36-.93,1.55-5,1.55-5l-.63-4.86s-1.67-5-6.33-1c0,0-3.56-4.53-7,.78,0,0-3-4.62-6.52-.32,0,0-3.16-4.54-6.19.77C263.21,186.94,262.09,188.18,264.36,192.38Z" transform="translate(4.98)"/><line class="cls-11" x1="288.3" y1="187.16" x2="288.94" y2="192.49"/><line class="cls-11" x1="281.2" y1="187.59" x2="282.02" y2="192.27"/><line class="cls-11" x1="274.54" y1="187.34" x2="275.36" y2="192.02"/><path class="cls-6" d="M63.48,217.09c7.37-5.12.08-6.57.08-6.57,6.06-6.21-.29-6.55-.29-6.55,6.34-5.88-.86-6.66-.86-6.66,3.3-1.84,2.57-4.46,2.57-4.46-1.19-2.25-5.16-1-5.16-1L55.06,193s-4.8,2.21-.26,6.39c0,0-4.1,4,1.55,6.84,0,0-4.26,3.45.4,6.51,0,0-4.16,3.64,1.45,6.07C58.2,218.84,59.56,219.81,63.48,217.09Z" transform="translate(4.98)"/><line class="cls-11" x1="61.18" y1="198.83" x2="66.4" y2="197.61"/><line class="cls-11" x1="62.39" y1="205.84" x2="66.95" y2="204.51"/><line class="cls-11" x1="62.87" y1="212.48" x2="67.44" y2="211.15"/><path d="M90.51,207.14H73.3V191.36H90.51ZM80,213.83H99.61v4.94H74.41v-9.71H80Zm5.1-11.33V196H78.73v6.5Zm14.13,9.06H93.73V191h5.49Z" transform="translate(4.98)"/><path d="M202.76,146.88H191.52v6.23h-5.58v-6.23H174.7v-5.07h28.06Zm-14.32-11.63a19.24,19.24,0,0,1-12.7,4.55v-5c4.26-.07,8.41-1.85,10.07-4.78h-9.58v-5h25v5h-9.35a7.39,7.39,0,0,1-.42,1.14l10.91,4.13-2.08,4.54Z" transform="translate(4.98)"/><path d="M278.69,47.75l8.22,11.43-4.45,3.19-5.72-8.28c-2.33,5.32-5.91,8.28-10.16,8.31V56.75c4.45-.52,7.57-8.64,7.6-20.23l5.58.19A53.53,53.53,0,0,1,278.69,47.75ZM293.14,36V63.7h-5.49V36Z" transform="translate(4.98)"/><path d="M281.94,215.7H264.73V199.92h17.21Zm-10.52,6.69H291v4.93H265.84v-9.71h5.58Zm5.1-11.34v-6.49h-6.36v6.49Zm14.13,9.06h-5.49V199.59h5.49Z" transform="translate(4.98)"/></g></g></svg>