<svg xmlns="http://www.w3.org/2000/svg" viewBox="0 0 128.07 137.36"><defs><style>.cls-1{fill:#fff;}</style></defs><g id="레이어_2" data-name="레이어 2"><g id="Layer_1" data-name="Layer 1"><path class="cls-1" d="M119.26,39.73H69.8V62.56h49.46Zm-5.39,17.44H75.19V45.12h38.68Z"/><path class="cls-1" d="M54.6,26.71H52.84V0H47.45V62.55h5.39V32.1H54.6a7.23,7.23,0,0,0,7.22-7.22H56.43A1.83,1.83,0,0,1,54.6,26.71Z"/><path class="cls-1" d="M122.68,11.64a1.83,1.83,0,0,1-1.83,1.82h-1.77V0h-5.39V34.67h5.39V18.85h1.77a7.22,7.22,0,0,0,7.22-7.21Z"/><path class="cls-1" d="M30.41,29.38H6.62V1.53H1.23V61H35.8V1.53H30.41ZM6.62,55.58V34.77H30.41V55.58Z"/><polygon class="cls-1" points="100.17 14.87 70.34 14.87 70.34 34.92 106.76 34.92 106.76 29.53 75.73 29.53 75.73 20.26 105.56 20.26 105.56 1.2 70.33 1.2 70.33 6.59 100.17 6.59 100.17 14.87"/><path class="cls-1" d="M118.21,132H96.34V118.8H91V132H67.52v5.39h50.69a7.22,7.22,0,0,0,7.21-7.22H120A1.83,1.83,0,0,1,118.21,132Z"/><path class="cls-1" d="M50.14,99.81a1.83,1.83,0,0,1-1.83,1.83H42.9V76.44H37.51V136H42.9V107h5.41a7,7,0,0,0,1.83-.25v30.58h5.39V74.92H50.14Z"/><polygon class="cls-1" points="113.78 93.06 69.8 93.06 69.8 116.53 120.36 116.53 120.36 111.14 75.19 111.14 75.19 98.45 119.17 98.45 119.17 76.11 69.8 76.11 69.8 81.5 113.78 81.5 113.78 93.06"/><polygon class="cls-1" points="5.39 81.5 30.18 81.5 30.18 76.11 0 76.11 0 137.36 31.25 137.36 31.25 131.97 5.39 131.97 5.39 81.5"/></g></g></svg>