<svg xmlns="http://www.w3.org/2000/svg" viewBox="0 0 1464 24" width="1464" height="24"><g fill="#ffffff" stroke="#000000" stroke-miterlimit="10"><path d="M19.3 19.02H5.03L2 21.44l.04-13.7.01-3.04c0-1.51 1.24-2.75 2.75-2.75h14.5c1.51 0 2.75 1.24 2.75 2.75v11.57c0 1.51-1.24 2.75-2.75 2.75z" stroke-dasharray="0,73.9073336203587" stroke-dashoffset="73.907334"/><path d="M1.93 7.58s3.39-5.15 8.54 0c5.15 5.15 11.64-.46 11.64-.46M2 12.76s3.85-5.18 9.03 0 11.18-.59 11.18-.59" stroke-dasharray="0,22.87962747851752" stroke-dashoffset="22.879627" stroke-linecap="square" stroke-linejoin="round" fill-rule="evenodd"/></g><g fill="#ffffff" stroke="#000000" stroke-miterlimit="10"><path d="M43.3 19.02H29.03L26 21.44l.04-13.7.01-3.04c0-1.51 1.24-2.75 2.75-2.75h14.5c1.51 0 2.75 1.24 2.75 2.75v11.57c0 1.51-1.24 2.75-2.75 2.75z" stroke-dasharray="0.18295526700079554,73.7243783533579" stroke-dashoffset="73.907334"/><path d="M25.93 7.58s3.39-5.15 8.54 0c5.15 5.15 11.64-.46 11.64-.46M26 12.76s3.85-5.18 9.03 0 11.18-.59 11.18-.59" stroke-dasharray="0,22.87962747851752" stroke-dashoffset="22.879627" stroke-linecap="square" stroke-linejoin="round" fill-rule="evenodd"/></g><g fill="#ffffff" stroke="#000000" stroke-miterlimit="10"><path d="M67.3 19.02H53.03L50 21.44l.04-13.7.01-3.04c0-1.51 1.24-2.75 2.75-2.75h14.5c1.51 0 2.75 1.24 2.75 2.75v11.57c0 1.51-1.24 2.75-2.75 2.75z" stroke-dasharray="0.7864298191960188,73.12090380116268" stroke-dashoffset="73.907334"/><path d="M49.93 7.58s3.39-5.15 8.54 0c5.15 5.15 11.64-.46 11.64-.46M50 12.76s3.85-5.18 9.03 0 11.18-.59 11.18-.59" stroke-dasharray="0,22.87962747851752" stroke-dashoffset="22.879627" stroke-linecap="square" stroke-linejoin="round" fill-rule="evenodd"/></g><g fill="#ffffff" stroke="#000000" stroke-miterlimit="10"><path d="M91.3 19.02H77.03L74 21.44l.04-13.7.01-3.04c0-1.51 1.24-2.75 2.75-2.75h14.5c1.51 0 2.75 1.24 2.75 2.75v11.57c0 1.51-1.24 2.75-2.75 2.75z" stroke-dasharray="1.911466470007965,71.99586715035073" stroke-dashoffset="73.907334"/><path d="M73.93 7.58s3.39-5.15 8.54 0c5.15 5.15 11.64-.46 11.64-.46M74 12.76s3.85-5.18 9.03 0 11.18-.59 11.18-.59" stroke-dasharray="0,22.87962747851752" stroke-dashoffset="22.879627" stroke-linecap="square" stroke-linejoin="round" fill-rule="evenodd"/></g><g fill="#ffffff" stroke="#000000" stroke-miterlimit="10"><path d="M115.3 19.02h-14.27L98 21.44l.04-13.7.01-3.04c0-1.51 1.24-2.75 2.75-2.75h14.5c1.51 0 2.75 1.24 2.75 2.75v11.57c0 1.51-1.24 2.75-2.75 2.75z" stroke-dasharray="3.690252807729775,70.21708081262892" stroke-dashoffset="73.907334"/><path d="M97.93 7.58s3.39-5.15 8.54 0c5.15 5.15 11.64-.46 11.64-.46M98 12.76s3.85-5.18 9.03 0 11.18-.59 11.18-.59" stroke-dasharray="0,22.87962747851752" stroke-dashoffset="22.879627" stroke-linecap="square" stroke-linejoin="round" fill-rule="evenodd"/></g><g fill="#ffffff" stroke="#000000" stroke-miterlimit="10"><path d="M139.3 19.02h-14.27L122 21.44l.04-13.7.01-3.04c0-1.51 1.24-2.75 2.75-2.75h14.5c1.51 0 2.75 1.24 2.75 2.75v11.57c0 1.51-1.24 2.75-2.75 2.75z" stroke-dasharray="6.289919221942796,67.6174143984159" stroke-dashoffset="73.907334"/><path d="M121.93 7.58s3.39-5.15 8.54 0c5.15 5.15 11.64-.46 11.64-.46M122 12.76s3.85-5.18 9.03 0 11.18-.59 11.18-.59" stroke-dasharray="0,22.87962747851752" stroke-dashoffset="22.879627" stroke-linecap="square" stroke-linejoin="round" fill-rule="evenodd"/></g><g fill="#ffffff" stroke="#000000" stroke-miterlimit="10"><path d="M163.3 19.02h-14.27L146 21.44l.04-13.7.01-3.04c0-1.51 1.24-2.75 2.75-2.75h14.5c1.51 0 2.75 1.24 2.75 2.75v11.57c0 1.51-1.24 2.75-2.75 2.75z" stroke-dasharray="9.899648992921195,64.0076846274375" stroke-dashoffset="73.907334"/><path d="M145.93 7.58s3.39-5.15 8.54 0c5.15 5.15 11.64-.46 11.64-.46M146 12.76s3.85-5.18 9.03 0 11.18-.59 11.18-.59" stroke-dasharray="0,22.87962747851752" stroke-dashoffset="22.879627" stroke-linecap="square" stroke-linejoin="round" fill-rule="evenodd"/></g><g fill="#ffffff" stroke="#000000" stroke-miterlimit="10"><path d="M187.3 19.02h-14.27L170 21.44l.04-13.7.01-3.04c0-1.51 1.24-2.75 2.75-2.75h14.5c1.51 0 2.75 1.24 2.75 2.75v11.57c0 1.51-1.24 2.75-2.75 2.75z" stroke-dasharray="14.66780164160426,59.239531978754435" stroke-dashoffset="73.907334"/><path d="M169.93 7.58s3.39-5.15 8.54 0c5.15 5.15 11.64-.46 11.64-.46M170 12.76s3.85-5.18 9.03 0 11.18-.59 11.18-.59" stroke-dasharray="0,22.87962747851752" stroke-dashoffset="22.879627" stroke-linecap="square" stroke-linejoin="round" fill-rule="evenodd"/></g><g fill="#ffffff" stroke="#000000" stroke-miterlimit="10"><path d="M211.3 19.02h-14.27L194 21.44l.04-13.7.01-3.04c0-1.51 1.24-2.75 2.75-2.75h14.5c1.51 0 2.75 1.24 2.75 2.75v11.57c0 1.51-1.24 2.75-2.75 2.75z" stroke-dasharray="20.55019554176613,53.35713807859258" stroke-dashoffset="73.907334"/><path d="M193.93 7.58s3.39-5.15 8.54 0c5.15 5.15 11.64-.46 11.64-.46M194 12.76s3.85-5.18 9.03 0 11.18-.59 11.18-.59" stroke-dasharray="0,22.87962747851752" stroke-dashoffset="22.879627" stroke-linecap="square" stroke-linejoin="round" fill-rule="evenodd"/></g><g fill="#ffffff" stroke="#000000" stroke-miterlimit="10"><path d="M235.3 19.02h-14.27L218 21.44l.04-13.7.01-3.04c0-1.51 1.24-2.75 2.75-2.75h14.5c1.51 0 2.75 1.24 2.75 2.75v11.57c0 1.51-1.24 2.75-2.75 2.75z" stroke-dasharray="27.145846449618684,46.76148717074001" stroke-dashoffset="73.907334"/><path d="M217.93 7.58s3.39-5.15 8.54 0c5.15 5.15 11.64-.46 11.64-.46M218 12.76s3.85-5.18 9.03 0 11.18-.59 11.18-.59" stroke-dasharray="0,22.87962747851752" stroke-dashoffset="22.879627" stroke-linecap="square" stroke-linejoin="round" fill-rule="evenodd"/></g><g fill="#ffffff" stroke="#000000" stroke-miterlimit="10"><path d="M259.3 19.02h-14.27L242 21.44l.04-13.7.01-3.04c0-1.51 1.24-2.75 2.75-2.75h14.5c1.51 0 2.75 1.24 2.75 2.75v11.57c0 1.51-1.24 2.75-2.75 2.75z" stroke-dasharray="33.79425688313498,40.11307673722372" stroke-dashoffset="73.907334"/><path d="M241.93 7.58s3.39-5.15 8.54 0c5.15 5.15 11.64-.46 11.64-.46M242 12.76s3.85-5.18 9.03 0 11.18-.59 11.18-.59" stroke-dasharray="0,22.87962747851752" stroke-dashoffset="22.879627" stroke-linecap="square" stroke-linejoin="round" fill-rule="evenodd"/></g><g fill="#ffffff" stroke="#000000" stroke-miterlimit="10"><path d="M283.3 19.02h-14.27L266 21.44l.04-13.7.01-3.04c0-1.51 1.24-2.75 2.75-2.75h14.5c1.51 0 2.75 1.24 2.75 2.75v11.57c0 1.51-1.24 2.75-2.75 2.75z" stroke-dasharray="39.94361741744934,33.96371620290936" stroke-dashoffset="73.907334"/><path d="M265.93 7.58s3.39-5.15 8.54 0c5.15 5.15 11.64-.46 11.64-.46M266 12.76s3.85-5.18 9.03 0 11.18-.59 11.18-.59" stroke-dasharray="0,22.87962747851752" stroke-dashoffset="22.879627" stroke-linecap="square" stroke-linejoin="round" fill-rule="evenodd"/></g><g fill="#ffffff" stroke="#000000" stroke-miterlimit="10"><path d="M307.3 19.02h-14.27L290 21.44l.04-13.7.01-3.04c0-1.51 1.24-2.75 2.75-2.75h14.5c1.51 0 2.75 1.24 2.75 2.75v11.57c0 1.51-1.24 2.75-2.75 2.75z" stroke-dasharray="45.3491516379608,28.558181982397898" stroke-dashoffset="73.907334"/><path d="M289.93 7.58s3.39-5.15 8.54 0c5.15 5.15 11.64-.46 11.64-.46M290 12.76s3.85-5.18 9.03 0 11.18-.59 11.18-.59" stroke-dasharray="0,22.87962747851752" stroke-dashoffset="22.879627" stroke-linecap="square" stroke-linejoin="round" fill-rule="evenodd"/></g><g fill="#ffffff" stroke="#000000" stroke-miterlimit="10"><path d="M331.3 19.02h-14.27L314 21.44l.04-13.7.01-3.04c0-1.51 1.24-2.75 2.75-2.75h14.5c1.51 0 2.75 1.24 2.75 2.75v11.57c0 1.51-1.24 2.75-2.75 2.75z" stroke-dasharray="49.99237899572505,23.91495462463365" stroke-dashoffset="73.907334"/><path d="M313.93 7.58s3.39-5.15 8.54 0c5.15 5.15 11.64-.46 11.64-.46M314 12.76s3.85-5.18 9.03 0 11.18-.59 11.18-.59" stroke-dasharray="0,22.87962747851752" stroke-dashoffset="22.879627" stroke-linecap="square" stroke-linejoin="round" fill-rule="evenodd"/></g><g fill="#ffffff" stroke="#000000" stroke-miterlimit="10"><path d="M355.3 19.02h-14.27L338 21.44l.04-13.7.01-3.04c0-1.51 1.24-2.75 2.75-2.75h14.5c1.51 0 2.75 1.24 2.75 2.75v11.57c0 1.51-1.24 2.75-2.75 2.75z" stroke-dasharray="53.94994364107216,19.957389979286543" stroke-dashoffset="73.907334"/><path d="M337.93 7.58s3.39-5.15 8.54 0c5.15 5.15 11.64-.46 11.64-.46M338 12.76s3.85-5.18 9.03 0 11.18-.59 11.18-.59" stroke-dasharray="0,22.87962747851752" stroke-dashoffset="22.879627" stroke-linecap="square" stroke-linejoin="round" fill-rule="evenodd"/></g><g fill="#ffffff" stroke="#000000" stroke-miterlimit="10"><path d="M379.3 19.02h-14.27L362 21.44l.04-13.7.01-3.04c0-1.51 1.24-2.75 2.75-2.75h14.5c1.51 0 2.75 1.24 2.75 2.75v11.57c0 1.51-1.24 2.75-2.75 2.75z" stroke-dasharray="57.31966856370764,16.587665056651065" stroke-dashoffset="73.907334"/><path d="M361.93 7.58s3.39-5.15 8.54 0c5.15 5.15 11.64-.46 11.64-.46M362 12.76s3.85-5.18 9.03 0 11.18-.59 11.18-.59" stroke-dasharray="0,22.87962747851752" stroke-dashoffset="22.879627" stroke-linecap="square" stroke-linejoin="round" fill-rule="evenodd"/></g><g fill="#ffffff" stroke="#000000" stroke-miterlimit="10"><path d="M403.3 19.02h-14.27L386 21.44l.04-13.7.01-3.04c0-1.51 1.24-2.75 2.75-2.75h14.5c1.51 0 2.75 1.24 2.75 2.75v11.57c0 1.51-1.24 2.75-2.75 2.75z" stroke-dasharray="60.19249428407383,13.714839336284866" stroke-dashoffset="73.907334"/><path d="M385.93 7.58s3.39-5.15 8.54 0c5.15 5.15 11.64-.46 11.64-.46M386 12.76s3.85-5.18 9.03 0 11.18-.59 11.18-.59" stroke-dasharray="0,22.87962747851752" stroke-dashoffset="22.879627" stroke-linecap="square" stroke-linejoin="round" fill-rule="evenodd"/></g><g fill="#ffffff" stroke="#000000" stroke-miterlimit="10"><path d="M427.3 19.02h-14.27L410 21.44l.04-13.7.01-3.04c0-1.51 1.24-2.75 2.75-2.75h14.5c1.51 0 2.75 1.24 2.75 2.75v11.57c0 1.51-1.24 2.75-2.75 2.75z" stroke-dasharray="62.64519167194841,11.262141948410287" stroke-dashoffset="73.907334"/><path d="M409.93 7.58s3.39-5.15 8.54 0c5.15 5.15 11.64-.46 11.64-.46M410 12.76s3.85-5.18 9.03 0 11.18-.59 11.18-.59" stroke-dasharray="0,22.87962747851752" stroke-dashoffset="22.879627" stroke-linecap="square" stroke-linejoin="round" fill-rule="evenodd"/></g><g fill="#ffffff" stroke="#000000" stroke-miterlimit="10"><path d="M451.3 19.02h-14.27L434 21.44l.04-13.7.01-3.04c0-1.51 1.24-2.75 2.75-2.75h14.5c1.51 0 2.75 1.24 2.75 2.75v11.57c0 1.51-1.24 2.75-2.75 2.75z" stroke-dasharray="64.740452524657,9.166881095701694" stroke-dashoffset="73.907334"/><path d="M433.93 7.58s3.39-5.15 8.54 0c5.15 5.15 11.64-.46 11.64-.46M434 12.76s3.85-5.18 9.03 0 11.18-.59 11.18-.59" stroke-dasharray="0,22.87962747851752" stroke-dashoffset="22.879627" stroke-linecap="square" stroke-linejoin="round" fill-rule="evenodd"/></g><g fill="#ffffff" stroke="#000000" stroke-miterlimit="10"><path d="M475.3 19.02h-14.27L458 21.44l.04-13.7.01-3.04c0-1.51 1.24-2.75 2.75-2.75h14.5c1.51 0 2.75 1.24 2.75 2.75v11.57c0 1.51-1.24 2.75-2.75 2.75z" stroke-dasharray="66.52902851372806,7.378305106630634" stroke-dashoffset="73.907334"/><path d="M457.93 7.58s3.39-5.15 8.54 0c5.15 5.15 11.64-.46 11.64-.46M458 12.76s3.85-5.18 9.03 0 11.18-.59 11.18-.59" stroke-dasharray="0,22.87962747851752" stroke-dashoffset="22.879627" stroke-linecap="square" stroke-linejoin="round" fill-rule="evenodd"/></g><g fill="#ffffff" stroke="#000000" stroke-miterlimit="10"><path d="M499.3 19.02h-14.27L482 21.44l.04-13.7.01-3.04c0-1.51 1.24-2.75 2.75-2.75h14.5c1.51 0 2.75 1.24 2.75 2.75v11.57c0 1.51-1.24 2.75-2.75 2.75z" stroke-dasharray="68.05208301546023,5.855250604898468" stroke-dashoffset="73.907334"/><path d="M481.93 7.58s3.39-5.15 8.54 0c5.15 5.15 11.64-.46 11.64-.46M482 12.76s3.85-5.18 9.03 0 11.18-.59 11.18-.59" stroke-dasharray="0,22.87962747851752" stroke-dashoffset="22.879627" stroke-linecap="square" stroke-linejoin="round" fill-rule="evenodd"/></g><g fill="#ffffff" stroke="#000000" stroke-miterlimit="10"><path d="M523.3 19.02h-14.27L506 21.44l.04-13.7.01-3.04c0-1.51 1.24-2.75 2.75-2.75h14.5c1.51 0 2.75 1.24 2.75 2.75v11.57c0 1.51-1.24 2.75-2.75 2.75z" stroke-dasharray="69.34322223555743,4.564111384801267" stroke-dashoffset="73.907334"/><path d="M505.93 7.58s3.39-5.15 8.54 0c5.15 5.15 11.64-.46 11.64-.46M506 12.76s3.85-5.18 9.03 0 11.18-.59 11.18-.59" stroke-dasharray="0,22.87962747851752" stroke-dashoffset="22.879627" stroke-linecap="square" stroke-linejoin="round" fill-rule="evenodd"/></g><g fill="#ffffff" stroke="#000000" stroke-miterlimit="10"><path d="M547.3 19.02h-14.27L530 21.44l.04-13.7.01-3.04c0-1.51 1.24-2.75 2.75-2.75h14.5c1.51 0 2.75 1.24 2.75 2.75v11.57c0 1.51-1.24 2.75-2.75 2.75z" stroke-dasharray="70.43011656427659,3.4772170560821176" stroke-dashoffset="73.907334"/><path d="M529.93 7.58s3.39-5.15 8.54 0c5.15 5.15 11.64-.46 11.64-.46M530 12.76s3.85-5.18 9.03 0 11.18-.59 11.18-.59" stroke-dasharray="0,22.87962747851752" stroke-dashoffset="22.879627" stroke-linecap="square" stroke-linejoin="round" fill-rule="evenodd"/></g><g fill="#ffffff" stroke="#000000" stroke-miterlimit="10"><path d="M571.3 19.02h-14.27L554 21.44l.04-13.7.01-3.04c0-1.51 1.24-2.75 2.75-2.75h14.5c1.51 0 2.75 1.24 2.75 2.75v11.57c0 1.51-1.24 2.75-2.75 2.75z" stroke-dasharray="71.33575730085923,2.571576319499477" stroke-dashoffset="73.907334"/><path d="M553.93 7.58s3.39-5.15 8.54 0c5.15 5.15 11.64-.46 11.64-.46M554 12.76s3.85-5.18 9.03 0 11.18-.59 11.18-.59" stroke-dasharray="0,22.87962747851752" stroke-dashoffset="22.879627" stroke-linecap="square" stroke-linejoin="round" fill-rule="evenodd"/></g><g fill="#ffffff" stroke="#000000" stroke-miterlimit="10"><path d="M595.3 19.02h-14.27L578 21.44l.04-13.7.01-3.04c0-1.51 1.24-2.75 2.75-2.75h14.5c1.51 0 2.75 1.24 2.75 2.75v11.57c0 1.51-1.24 2.75-2.75 2.75z" stroke-dasharray="72.07942178983528,1.8279118305234168" stroke-dashoffset="73.907334"/><path d="M577.93 7.58s3.39-5.15 8.54 0c5.15 5.15 11.64-.46 11.64-.46M578 12.76s3.85-5.18 9.03 0 11.18-.59 11.18-.59" stroke-dasharray="0,22.87962747851752" stroke-dashoffset="22.879627" stroke-linecap="square" stroke-linejoin="round" fill-rule="evenodd"/></g><g fill="#ffffff" stroke="#000000" stroke-miterlimit="10"><path d="M619.3 19.02h-14.27L602 21.44l.04-13.7.01-3.04c0-1.51 1.24-2.75 2.75-2.75h14.5c1.51 0 2.75 1.24 2.75 2.75v11.57c0 1.51-1.24 2.75-2.75 2.75z" stroke-dasharray="72.67741475410469,1.2299188662540081" stroke-dashoffset="73.907334"/><path d="M601.93 7.58s3.39-5.15 8.54 0c5.15 5.15 11.64-.46 11.64-.46M602 12.76s3.85-5.18 9.03 0 11.18-.59 11.18-.59" stroke-dasharray="0,22.87962747851752" stroke-dashoffset="22.879627" stroke-linecap="square" stroke-linejoin="round" fill-rule="evenodd"/></g><g fill="#ffffff" stroke="#000000" stroke-miterlimit="10"><path d="M643.3 19.02h-14.27L626 21.44l.04-13.7.01-3.04c0-1.51 1.24-2.75 2.75-2.75h14.5c1.51 0 2.75 1.24 2.75 2.75v11.57c0 1.51-1.24 2.75-2.75 2.75z" stroke-dasharray="73.14364047210744,0.7636931482512579" stroke-dashoffset="73.907334"/><path d="M625.93 7.58s3.39-5.15 8.54 0c5.15 5.15 11.64-.46 11.64-.46M626 12.76s3.85-5.18 9.03 0 11.18-.59 11.18-.59" stroke-dasharray="0,22.87962747851752" stroke-dashoffset="22.879627" stroke-linecap="square" stroke-linejoin="round" fill-rule="evenodd"/></g><g fill="#ffffff" stroke="#000000" stroke-miterlimit="10"><path d="M667.3 19.02h-14.27L650 21.44l.04-13.7.01-3.04c0-1.51 1.24-2.75 2.75-2.75h14.5c1.51 0 2.75 1.24 2.75 2.75v11.57c0 1.51-1.24 2.75-2.75 2.75z" stroke-dasharray="73.49004754787069,0.4172860724880089" stroke-dashoffset="73.907334"/><path d="M649.93 7.58s3.39-5.15 8.54 0c5.15 5.15 11.64-.46 11.64-.46M650 12.76s3.85-5.18 9.03 0 11.18-.59 11.18-.59" stroke-dasharray="0,22.87962747851752" stroke-dashoffset="22.879627" stroke-linecap="square" stroke-linejoin="round" fill-rule="evenodd"/></g><g fill="#ffffff" stroke="#000000" stroke-miterlimit="10"><path d="M691.3 19.02h-14.27L674 21.44l.04-13.7.01-3.04c0-1.51 1.24-2.75 2.75-2.75h14.5c1.51 0 2.75 1.24 2.75 2.75v11.57c0 1.51-1.24 2.75-2.75 2.75z" stroke-dasharray="73.72697747909966,0.18035614125903704" stroke-dashoffset="73.907334"/><path d="M673.93 7.58s3.39-5.15 8.54 0c5.15 5.15 11.64-.46 11.64-.46M674 12.76s3.85-5.18 9.03 0 11.18-.59 11.18-.59" stroke-dasharray="0,22.87962747851752" stroke-dashoffset="22.879627" stroke-linecap="square" stroke-linejoin="round" fill-rule="evenodd"/></g><g fill="#ffffff" stroke="#000000" stroke-miterlimit="10"><path d="M715.3 19.02h-14.27L698 21.44l.04-13.7.01-3.04c0-1.51 1.24-2.75 2.75-2.75h14.5c1.51 0 2.75 1.24 2.75 2.75v11.57c0 1.51-1.24 2.75-2.75 2.75z" stroke-dasharray="73.86344017729294,0.04389344306575667" stroke-dashoffset="73.907334"/><path d="M697.93 7.58s3.39-5.15 8.54 0c5.15 5.15 11.64-.46 11.64-.46M698 12.76s3.85-5.18 9.03 0 11.18-.59 11.18-.59" stroke-dasharray="0,22.87962747851752" stroke-dashoffset="22.879627" stroke-linecap="square" stroke-linejoin="round" fill-rule="evenodd"/></g><g fill="#ffffff" stroke="#000000" stroke-miterlimit="10"><path d="M739.3 19.02h-14.27L722 21.44l.04-13.7.01-3.04c0-1.51 1.24-2.75 2.75-2.75h14.5c1.51 0 2.75 1.24 2.75 2.75v11.57c0 1.51-1.24 2.75-2.75 2.75z"/><path d="M721.93 7.58s3.39-5.15 8.54 0c5.15 5.15 11.64-.46 11.64-.46M722 12.76s3.85-5.18 9.03 0 11.18-.59 11.18-.59" stroke-dasharray="0,22.87962747851752" stroke-dashoffset="22.879627" stroke-linecap="square" stroke-linejoin="round" fill-rule="evenodd"/></g><g fill="#ffffff" stroke="#000000" stroke-miterlimit="10"><path d="M763.3 19.02h-14.27L746 21.44l.04-13.7.01-3.04c0-1.51 1.24-2.75 2.75-2.75h14.5c1.51 0 2.75 1.24 2.75 2.75v11.57c0 1.51-1.24 2.75-2.75 2.75z"/><path d="M745.93 7.58s3.39-5.15 8.54 0c5.15 5.15 11.64-.46 11.64-.46M746 12.76s3.85-5.18 9.03 0 11.18-.59 11.18-.59" stroke-dasharray="0.05663779423721326,22.82298968428031" stroke-dashoffset="22.879627" stroke-linecap="square" stroke-linejoin="round" fill-rule="evenodd"/></g><g fill="#ffffff" stroke="#000000" stroke-miterlimit="10"><path d="M787.3 19.02h-14.27L770 21.44l.04-13.7.01-3.04c0-1.51 1.24-2.75 2.75-2.75h14.5c1.51 0 2.75 1.24 2.75 2.75v11.57c0 1.51-1.24 2.75-2.75 2.75z"/><path d="M769.93 7.58s3.39-5.15 8.54 0c5.15 5.15 11.64-.46 11.64-.46M770 12.76s3.85-5.18 9.03 0 11.18-.59 11.18-.59" stroke-dasharray="0.24345650722063644,22.636170971296885" stroke-dashoffset="22.879627" stroke-linecap="square" stroke-linejoin="round" fill-rule="evenodd"/></g><g fill="#ffffff" stroke="#000000" stroke-miterlimit="10"><path d="M811.3 19.02h-14.27L794 21.44l.04-13.7.01-3.04c0-1.51 1.24-2.75 2.75-2.75h14.5c1.51 0 2.75 1.24 2.75 2.75v11.57c0 1.51-1.24 2.75-2.75 2.75z"/><path d="M793.93 7.58s3.39-5.15 8.54 0c5.15 5.15 11.64-.46 11.64-.46M794 12.76s3.85-5.18 9.03 0 11.18-.59 11.18-.59" stroke-dasharray="0.5917361461868805,22.28789133233064" stroke-dashoffset="22.879627" stroke-linecap="square" stroke-linejoin="round" fill-rule="evenodd"/></g><g fill="#ffffff" stroke="#000000" stroke-miterlimit="10"><path d="M835.3 19.02h-14.27L818 21.44l.04-13.7.01-3.04c0-1.51 1.24-2.75 2.75-2.75h14.5c1.51 0 2.75 1.24 2.75 2.75v11.57c0 1.51-1.24 2.75-2.75 2.75z"/><path d="M817.93 7.58s3.39-5.15 8.54 0c5.15 5.15 11.64-.46 11.64-.46M818 12.76s3.85-5.18 9.03 0 11.18-.59 11.18-.59" stroke-dasharray="1.1423982628856837,21.737229215631835" stroke-dashoffset="22.879627" stroke-linecap="square" stroke-linejoin="round" fill-rule="evenodd"/></g><g fill="#ffffff" stroke="#000000" stroke-miterlimit="10"><path d="M859.3 19.02h-14.27L842 21.44l.04-13.7.01-3.04c0-1.51 1.24-2.75 2.75-2.75h14.5c1.51 0 2.75 1.24 2.75 2.75v11.57c0 1.51-1.24 2.75-2.75 2.75z"/><path d="M841.93 7.58s3.39-5.15 8.54 0c5.15 5.15 11.64-.46 11.64-.46M842 12.76s3.85-5.18 9.03 0 11.18-.59 11.18-.59" stroke-dasharray="1.947181715514846,20.932445763002672" stroke-dashoffset="22.879627" stroke-linecap="square" stroke-linejoin="round" fill-rule="evenodd"/></g><g fill="#ffffff" stroke="#000000" stroke-miterlimit="10"><path d="M883.3 19.02h-14.27L866 21.44l.04-13.7.01-3.04c0-1.51 1.24-2.75 2.75-2.75h14.5c1.51 0 2.75 1.24 2.75 2.75v11.57c0 1.51-1.24 2.75-2.75 2.75z"/><path d="M865.93 7.58s3.39-5.15 8.54 0c5.15 5.15 11.64-.46 11.64-.46M866 12.76s3.85-5.18 9.03 0 11.18-.59 11.18-.59" stroke-dasharray="3.0646523156901675,19.814975162827352" stroke-dashoffset="22.879627" stroke-linecap="square" stroke-linejoin="round" fill-rule="evenodd"/></g><g fill="#ffffff" stroke="#000000" stroke-miterlimit="10"><path d="M907.3 19.02h-14.27L890 21.44l.04-13.7.01-3.04c0-1.51 1.24-2.75 2.75-2.75h14.5c1.51 0 2.75 1.24 2.75 2.75v11.57c0 1.51-1.24 2.75-2.75 2.75z"/><path d="M889.93 7.58s3.39-5.15 8.54 0c5.15 5.15 11.64-.46 11.64-.46M890 12.76s3.85-5.18 9.03 0 11.18-.59 11.18-.59" stroke-dasharray="4.5407379897175755,18.338889488799946" stroke-dashoffset="22.879627" stroke-linecap="square" stroke-linejoin="round" fill-rule="evenodd"/></g><g fill="#ffffff" stroke="#000000" stroke-miterlimit="10"><path d="M931.3 19.02h-14.27L914 21.44l.04-13.7.01-3.04c0-1.51 1.24-2.75 2.75-2.75h14.5c1.51 0 2.75 1.24 2.75 2.75v11.57c0 1.51-1.24 2.75-2.75 2.75z"/><path d="M913.93 7.58s3.39-5.15 8.54 0c5.15 5.15 11.64-.46 11.64-.46M914 12.76s3.85-5.18 9.03 0 11.18-.59 11.18-.59" stroke-dasharray="6.361761351336079,16.51786612718144" stroke-dashoffset="22.879627" stroke-linecap="square" stroke-linejoin="round" fill-rule="evenodd"/></g><g fill="#ffffff" stroke="#000000" stroke-miterlimit="10"><path d="M955.3 19.02h-14.27L938 21.44l.04-13.7.01-3.04c0-1.51 1.24-2.75 2.75-2.75h14.5c1.51 0 2.75 1.24 2.75 2.75v11.57c0 1.51-1.24 2.75-2.75 2.75z"/><path d="M937.93 7.58s3.39-5.15 8.54 0c5.15 5.15 11.64-.46 11.64-.46M938 12.76s3.85-5.18 9.03 0 11.18-.59 11.18-.59" stroke-dasharray="8.403588980041715,14.476038498475805" stroke-dashoffset="22.879627" stroke-linecap="square" stroke-linejoin="round" fill-rule="evenodd"/></g><g fill="#ffffff" stroke="#000000" stroke-miterlimit="10"><path d="M979.3 19.02h-14.27L962 21.44l.04-13.7.01-3.04c0-1.51 1.24-2.75 2.75-2.75h14.5c1.51 0 2.75 1.24 2.75 2.75v11.57c0 1.51-1.24 2.75-2.75 2.75z"/><path d="M961.93 7.58s3.39-5.15 8.54 0c5.15 5.15 11.64-.46 11.64-.46M962 12.76s3.85-5.18 9.03 0 11.18-.59 11.18-.59" stroke-dasharray="10.461749470914034,12.417878007603486" stroke-dashoffset="22.879627" stroke-linecap="square" stroke-linejoin="round" fill-rule="evenodd"/></g><g fill="#ffffff" stroke="#000000" stroke-miterlimit="10"><path d="M1003.3 19.02h-14.27L986 21.44l.04-13.7.01-3.04c0-1.51 1.24-2.75 2.75-2.75h14.5c1.51 0 2.75 1.24 2.75 2.75v11.57c0 1.51-1.24 2.75-2.75 2.75z"/><path d="M985.93 7.58s3.39-5.15 8.54 0c5.15 5.15 11.64-.46 11.64-.46M986 12.76s3.85-5.18 9.03 0 11.18-.59 11.18-.59" stroke-dasharray="12.365418178256688,10.514209300260832" stroke-dashoffset="22.879627" stroke-linecap="square" stroke-linejoin="round" fill-rule="evenodd"/></g><g fill="#ffffff" stroke="#000000" stroke-miterlimit="10"><path d="M1027.3 19.02h-14.27l-3.03 2.42.04-13.7.01-3.04c0-1.51 1.24-2.75 2.75-2.75h14.5c1.51 0 2.75 1.24 2.75 2.75v11.57c0 1.51-1.24 2.75-2.75 2.75z"/><path d="M1009.93 7.58s3.39-5.15 8.54 0c5.15 5.15 11.64-.46 11.64-.46M1010 12.76s3.85-5.18 9.03 0 11.18-.59 11.18-.59" stroke-dasharray="14.03881922290772,8.840808255609799" stroke-dashoffset="22.879627" stroke-linecap="square" stroke-linejoin="round" fill-rule="evenodd"/></g><g fill="#ffffff" stroke="#000000" stroke-miterlimit="10"><path d="M1051.3 19.02h-14.27l-3.03 2.42.04-13.7.01-3.04c0-1.51 1.24-2.75 2.75-2.75h14.5c1.51 0 2.75 1.24 2.75 2.75v11.57c0 1.51-1.24 2.75-2.75 2.75z"/><path d="M1033.93 7.58s3.39-5.15 8.54 0c5.15 5.15 11.64-.46 11.64-.46M1034 12.76s3.85-5.18 9.03 0 11.18-.59 11.18-.59" stroke-dasharray="15.476231547771288,7.403395930746232" stroke-dashoffset="22.879627" stroke-linecap="square" stroke-linejoin="round" fill-rule="evenodd"/></g><g fill="#ffffff" stroke="#000000" stroke-miterlimit="10"><path d="M1075.3 19.02h-14.27l-3.03 2.42.04-13.7.01-3.04c0-1.51 1.24-2.75 2.75-2.75h14.5c1.51 0 2.75 1.24 2.75 2.75v11.57c0 1.51-1.24 2.75-2.75 2.75z"/><path d="M1057.93 7.58s3.39-5.15 8.54 0c5.15 5.15 11.64-.46 11.64-.46M1058 12.76s3.85-5.18 9.03 0 11.18-.59 11.18-.59" stroke-dasharray="16.701382021644566,6.178245456872955" stroke-dashoffset="22.879627" stroke-linecap="square" stroke-linejoin="round" fill-rule="evenodd"/></g><g fill="#ffffff" stroke="#000000" stroke-miterlimit="10"><path d="M1099.3 19.02h-14.27l-3.03 2.42.04-13.7.01-3.04c0-1.51 1.24-2.75 2.75-2.75h14.5c1.51 0 2.75 1.24 2.75 2.75v11.57c0 1.51-1.24 2.75-2.75 2.75z"/><path d="M1081.93 7.58s3.39-5.15 8.54 0c5.15 5.15 11.64-.46 11.64-.46M1082 12.76s3.85-5.18 9.03 0 11.18-.59 11.18-.59" stroke-dasharray="17.744553885089232,5.135073593428286" stroke-dashoffset="22.879627" stroke-linecap="square" stroke-linejoin="round" fill-rule="evenodd"/></g><g fill="#ffffff" stroke="#000000" stroke-miterlimit="10"><path d="M1123.3 19.02h-14.27l-3.03 2.42.04-13.7.01-3.04c0-1.51 1.24-2.75 2.75-2.75h14.5c1.51 0 2.75 1.24 2.75 2.75v11.57c0 1.51-1.24 2.75-2.75 2.75z"/><path d="M1105.93 7.58s3.39-5.15 8.54 0c5.15 5.15 11.64-.46 11.64-.46M1106 12.76s3.85-5.18 9.03 0 11.18-.59 11.18-.59" stroke-dasharray="18.633899760159153,4.245727718358365" stroke-dashoffset="22.879627" stroke-linecap="square" stroke-linejoin="round" fill-rule="evenodd"/></g><g fill="#ffffff" stroke="#000000" stroke-miterlimit="10"><path d="M1147.3 19.02h-14.27l-3.03 2.42.04-13.7.01-3.04c0-1.51 1.24-2.75 2.75-2.75h14.5c1.51 0 2.75 1.24 2.75 2.75v11.57c0 1.51-1.24 2.75-2.75 2.75z"/><path d="M1129.93 7.58s3.39-5.15 8.54 0c5.15 5.15 11.64-.46 11.64-.46M1130 12.76s3.85-5.18 9.03 0 11.18-.59 11.18-.59" stroke-dasharray="19.393185744421015,3.486441734096507" stroke-dashoffset="22.879627" stroke-linecap="square" stroke-linejoin="round" fill-rule="evenodd"/></g><g fill="#ffffff" stroke="#000000" stroke-miterlimit="10"><path d="M1171.3 19.02h-14.27l-3.03 2.42.04-13.7.01-3.04c0-1.51 1.24-2.75 2.75-2.75h14.5c1.51 0 2.75 1.24 2.75 2.75v11.57c0 1.51-1.24 2.75-2.75 2.75z"/><path d="M1153.93 7.58s3.39-5.15 8.54 0c5.15 5.15 11.64-.46 11.64-.46M1154 12.76s3.85-5.18 9.03 0 11.18-.59 11.18-.59" stroke-dasharray="20.041819451416064,2.8378080271014565" stroke-dashoffset="22.879627" stroke-linecap="square" stroke-linejoin="round" fill-rule="evenodd"/></g><g fill="#ffffff" stroke="#000000" stroke-miterlimit="10"><path d="M1195.3 19.02h-14.27l-3.03 2.42.04-13.7.01-3.04c0-1.51 1.24-2.75 2.75-2.75h14.5c1.51 0 2.75 1.24 2.75 2.75v11.57c0 1.51-1.24 2.75-2.75 2.75z"/><path d="M1177.93 7.58s3.39-5.15 8.54 0c5.15 5.15 11.64-.46 11.64-.46M1178 12.76s3.85-5.18 9.03 0 11.18-.59 11.18-.59" stroke-dasharray="20.59551216826026,2.28411531025726" stroke-dashoffset="22.879627" stroke-linecap="square" stroke-linejoin="round" fill-rule="evenodd"/></g><g fill="#ffffff" stroke="#000000" stroke-miterlimit="10"><path d="M1219.3 19.02h-14.27l-3.03 2.42.04-13.7.01-3.04c0-1.51 1.24-2.75 2.75-2.75h14.5c1.51 0 2.75 1.24 2.75 2.75v11.57c0 1.51-1.24 2.75-2.75 2.75z"/><path d="M1201.93 7.58s3.39-5.15 8.54 0c5.15 5.15 11.64-.46 11.64-.46M1202 12.76s3.85-5.18 9.03 0 11.18-.59 11.18-.59" stroke-dasharray="21.06700691610369,1.8126205624138296" stroke-dashoffset="22.879627" stroke-linecap="square" stroke-linejoin="round" fill-rule="evenodd"/></g><g fill="#ffffff" stroke="#000000" stroke-miterlimit="10"><path d="M1243.3 19.02h-14.27l-3.03 2.42.04-13.7.01-3.04c0-1.51 1.24-2.75 2.75-2.75h14.5c1.51 0 2.75 1.24 2.75 2.75v11.57c0 1.51-1.24 2.75-2.75 2.75z"/><path d="M1225.93 7.58s3.39-5.15 8.54 0c5.15 5.15 11.64-.46 11.64-.46M1226 12.76s3.85-5.18 9.03 0 11.18-.59 11.18-.59" stroke-dasharray="21.466707229072227,1.412920249445293" stroke-dashoffset="22.879627" stroke-linecap="square" stroke-linejoin="round" fill-rule="evenodd"/></g><g fill="#ffffff" stroke="#000000" stroke-miterlimit="10"><path d="M1267.3 19.02h-14.27l-3.03 2.42.04-13.7.01-3.04c0-1.51 1.24-2.75 2.75-2.75h14.5c1.51 0 2.75 1.24 2.75 2.75v11.57c0 1.51-1.24 2.75-2.75 2.75z"/><path d="M1249.93 7.58s3.39-5.15 8.54 0c5.15 5.15 11.64-.46 11.64-.46M1250 12.76s3.85-5.18 9.03 0 11.18-.59 11.18-.59" stroke-dasharray="21.803179080124877,1.0764483983926427" stroke-dashoffset="22.879627" stroke-linecap="square" stroke-linejoin="round" fill-rule="evenodd"/></g><g fill="#ffffff" stroke="#000000" stroke-miterlimit="10"><path d="M1291.3 19.02h-14.27l-3.03 2.42.04-13.7.01-3.04c0-1.51 1.24-2.75 2.75-2.75h14.5c1.51 0 2.75 1.24 2.75 2.75v11.57c0 1.51-1.24 2.75-2.75 2.75z"/><path d="M1273.93 7.58s3.39-5.15 8.54 0c5.15 5.15 11.64-.46 11.64-.46M1274 12.76s3.85-5.18 9.03 0 11.18-.59 11.18-.59" stroke-dasharray="22.083539927518146,0.7960875509993732" stroke-dashoffset="22.879627" stroke-linecap="square" stroke-linejoin="round" fill-rule="evenodd"/></g><g fill="#ffffff" stroke="#000000" stroke-miterlimit="10"><path d="M1315.3 19.02h-14.27l-3.03 2.42.04-13.7.01-3.04c0-1.51 1.24-2.75 2.75-2.75h14.5c1.51 0 2.75 1.24 2.75 2.75v11.57c0 1.51-1.24 2.75-2.75 2.75z"/><path d="M1297.93 7.58s3.39-5.15 8.54 0c5.15 5.15 11.64-.46 11.64-.46M1298 12.76s3.85-5.18 9.03 0 11.18-.59 11.18-.59" stroke-dasharray="22.31375749380425,0.5658699847132687" stroke-dashoffset="22.879627" stroke-linecap="square" stroke-linejoin="round" fill-rule="evenodd"/></g><g fill="#ffffff" stroke="#000000" stroke-miterlimit="10"><path d="M1339.3 19.02h-14.27l-3.03 2.42.04-13.7.01-3.04c0-1.51 1.24-2.75 2.75-2.75h14.5c1.51 0 2.75 1.24 2.75 2.75v11.57c0 1.51-1.24 2.75-2.75 2.75z"/><path d="M1321.93 7.58s3.39-5.15 8.54 0c5.15 5.15 11.64-.46 11.64-.46M1322 12.76s3.85-5.18 9.03 0 11.18-.59 11.18-.59" stroke-dasharray="22.498879261659365,0.3807482168581547" stroke-dashoffset="22.879627" stroke-linecap="square" stroke-linejoin="round" fill-rule="evenodd"/></g><g fill="#ffffff" stroke="#000000" stroke-miterlimit="10"><path d="M1363.3 19.02h-14.27l-3.03 2.42.04-13.7.01-3.04c0-1.51 1.24-2.75 2.75-2.75h14.5c1.51 0 2.75 1.24 2.75 2.75v11.57c0 1.51-1.24 2.75-2.75 2.75z"/><path d="M1345.93 7.58s3.39-5.15 8.54 0c5.15 5.15 11.64-.46 11.64-.46M1346 12.76s3.85-5.18 9.03 0 11.18-.59 11.18-.59" stroke-dasharray="22.643209603809186,0.2364178747083344" stroke-dashoffset="22.879627" stroke-linecap="square" stroke-linejoin="round" fill-rule="evenodd"/></g><g fill="#ffffff" stroke="#000000" stroke-miterlimit="10"><path d="M1387.3 19.02h-14.27l-3.03 2.42.04-13.7.01-3.04c0-1.51 1.24-2.75 2.75-2.75h14.5c1.51 0 2.75 1.24 2.75 2.75v11.57c0 1.51-1.24 2.75-2.75 2.75z"/><path d="M1369.93 7.58s3.39-5.15 8.54 0c5.15 5.15 11.64-.46 11.64-.46M1370 12.76s3.85-5.18 9.03 0 11.18-.59 11.18-.59" stroke-dasharray="22.750447471300085,0.12918000721743486" stroke-dashoffset="22.879627" stroke-linecap="square" stroke-linejoin="round" fill-rule="evenodd"/></g><g fill="#ffffff" stroke="#000000" stroke-miterlimit="10"><path d="M1411.3 19.02h-14.27l-3.03 2.42.04-13.7.01-3.04c0-1.51 1.24-2.75 2.75-2.75h14.5c1.51 0 2.75 1.24 2.75 2.75v11.57c0 1.51-1.24 2.75-2.75 2.75z"/><path d="M1393.93 7.58s3.39-5.15 8.54 0c5.15 5.15 11.64-.46 11.64-.46M1394 12.76s3.85-5.18 9.03 0 11.18-.59 11.18-.59" stroke-dasharray="22.82379430035598,0.05583317816153714" stroke-dashoffset="22.879627" stroke-linecap="square" stroke-linejoin="round" fill-rule="evenodd"/></g><g fill="#ffffff" stroke="#000000" stroke-miterlimit="10"><path d="M1435.3 19.02h-14.27l-3.03 2.42.04-13.7.01-3.04c0-1.51 1.24-2.75 2.75-2.75h14.5c1.51 0 2.75 1.24 2.75 2.75v11.57c0 1.51-1.24 2.75-2.75 2.75z"/><path d="M1417.93 7.58s3.39-5.15 8.54 0c5.15 5.15 11.64-.46 11.64-.46M1418 12.76s3.85-5.18 9.03 0 11.18-.59 11.18-.59" stroke-dasharray="22.866039305640758,0.013588172876762977" stroke-dashoffset="22.879627" stroke-linecap="square" stroke-linejoin="round" fill-rule="evenodd"/></g><g fill="#ffffff" stroke="#000000" stroke-miterlimit="10"><path d="M1459.3 19.02h-14.27l-3.03 2.42.04-13.7.01-3.04c0-1.51 1.24-2.75 2.75-2.75h14.5c1.51 0 2.75 1.24 2.75 2.75v11.57c0 1.51-1.24 2.75-2.75 2.75z"/><path d="M1441.93 7.58s3.39-5.15 8.54 0c5.15 5.15 11.64-.46 11.64-.46M1442 12.76s3.85-5.18 9.03 0 11.18-.59 11.18-.59" stroke-linecap="square" stroke-linejoin="round" fill-rule="evenodd"/></g></svg>