<?xml version="1.0" encoding="utf-8"?>
<!-- Generator: Adobe Illustrator 21.0.0, SVG Export Plug-In . SVG Version: 6.00 Build 0)  -->
<svg version="1.1" id="레이어_1" focusable="false"
	 xmlns="http://www.w3.org/2000/svg" xmlns:xlink="http://www.w3.org/1999/xlink" x="0px" y="0px" viewBox="0 0 512 512"
	 style="enable-background:new 0 0 512 512;" xml:space="preserve">
<style type="text/css">
	.st0{fill:#C96B6E;}
</style>
<path class="st0" d="M432,0c-7.1,0-14.2,2.4-20,7l-85,68c-42.7,34.1-96.3,52.9-151,52.9H64c-35.3,0-64,28.7-64,64v96
	c0,35.3,28.7,64,64,64h2.5c-10.8,77.8,34.5,143.3,36.8,146.5c6.1,8.5,15.2,13.5,24.7,13.5h64c12.9,0,24.6-9.1,29.6-23
	c5-14,2.2-30-6.9-40.7c-0.4-0.5-39.8-49.1-28.8-95.4c51.2,2.1,101,20,141.1,52.1l85,67.2c4.8,4.7,13.8,7.9,20,7.9
	c24.9,0,32-22.8,32-32V313.1c28.2-12.4,48-40.3,48-73.1c0-32.8-19.8-60.7-48-73.1V32C464,23.3,457,0,432,0z M64,336
	c-26.5,0-48-21.5-48-48v-96c0-26.5,21.5-48,48-48h112c58.3,0,115.4-20,160.1-56.4l85.1-68.1c3.7-2.3,7.2-3.5,10.8-3.5
	c15.1,0,16,15.8,16,16v416c0,0.2-0.7,16-16,16c-2.6,0-8-1.9-10-3.5l-85-68C291.4,356,234.3,336,176,336H64z M464,294.9V185.1
	c19,11.1,32,31.4,32,54.9S483,283.9,464,294.9z M128,496c-4.3,0-8.5-2.5-11.6-6.8c-2.1-3-44.9-64.8-33.8-137.2H169
	c-10.9,53.8,32.9,106.1,33.4,106.7c5.4,6.4,7.1,16.4,4,24.9c-2.7,7.5-8.4,12.4-14.5,12.4H128z M248,160c-4.4,0-8,3.6-8,8v144
	c0,4.4,3.6,8,8,8s8-3.6,8-8V168C256,163.6,252.4,160,248,160z"/>
</svg>
